<svg xmlns="http://www.w3.org/2000/svg" id="cp-4c-h-black" version="1.1" viewBox="0 0 884.8 237"><defs><style>.cp-logo-svg-red-arrow{fill:#eb5a41}.cp-logo-svg-red-arrow,.cp-logo-svg-words,.cp-logo-svg-bolt,.cp-logo-svg-blue-arrow{stroke-width:0}.cp-logo-svg-words{fill:#000}.cp-logo-svg-bolt{fill:#fff}.cp-logo-svg-blue-arrow{fill:#22baed}</style></defs><path d="m296.8 114.2-18.7-22.5c-1.5 1.8-3.5 3.5-6 4.9-2.8 1.6-6.2 2.4-10.1 2.4s-5.4-.5-7.9-1.5-4.7-2.5-6.5-4.4c-1.9-1.9-3.4-4.2-4.4-6.8-1.1-2.6-1.6-5.6-1.6-8.9s.5-6.3 1.6-9c1-2.7 2.5-5 4.4-7 1.9-2 4.1-3.4 6.5-4.4 2.5-1 5.2-1.5 8-1.5s6.7.7 9.5 1.9c2.5 1.1 4.7 2.8 6.5 4.8l18.8-22.7c-4.3-3.8-9.6-6.8-15.8-9.1-6.6-2.4-13.6-3.6-21-3.6s-14 1.2-20.4 3.6c-6.3 2.4-11.9 5.8-16.5 10.2-4.6 4.4-8.4 9.7-11.1 15.9s-4 13.2-4 20.8 1.4 14.4 4 20.6c2.7 6.1 6.4 11.5 11.1 15.9 4.6 4.4 10.2 7.9 16.5 10.3 6.3 2.4 13.2 3.7 20.3 3.7s15.2-1.3 21.5-3.8c6-2.4 11.1-5.7 15.3-9.8ZM278 91.6l.1.1-.1-.1zM247.3 145.5c-3.6-2.4-7.8-4.2-12.5-5.2s-9.5-1.6-14.4-1.6h-40.8v95.4h30.8v-30.4c0-.5.4-.9.9-.9h9.2-.1c4.9 0 9.8-.5 14.5-1.7s8.9-3.1 12.5-5.6c3.6-2.6 6.5-5.9 8.7-10 2.2-4.1 3.3-9.1 3.3-15s-1.1-11.3-3.3-15.3-5.2-7.3-8.8-9.7Zm-22 32.5c-2.2 1.3-4.6 2-7.2 2h-6.9c-.5 0-.9-.4-.9-.9v-15.7c0-.5.4-.9.9-.9h6.9c1.2 0 2.5 0 3.7.4 1.3.2 2.5.7 3.5 1.3 1.1.6 2 1.5 2.6 2.6.6 1.1.9 2.5.9 4.2 0 3.2-1.2 5.6-3.5 7Z" class="cp-logo-svg-words"/><path d="M299.6 97.8c2.7 6.3 6.4 11.7 11.1 16.1 4.7 4.4 10.4 7.9 16.8 10.3 6.5 2.4 13.6 3.7 21.1 3.7s14.6-1.2 21.1-3.7 12.1-5.9 16.9-10.3c4.7-4.4 8.5-9.8 11.2-16.1s4-13.3 4-20.9-1.4-14.6-4-20.7c-2.7-6.1-6.4-11.4-11.2-15.7-4.7-4.3-10.4-7.7-16.9-10S356.1 27 348.6 27s-14.6 1.2-21.1 3.5-12.1 5.7-16.8 10c-4.7 4.3-8.4 9.6-11.1 15.7-2.7 6.1-4 13.1-4 20.7s1.4 14.7 4 20.9Zm30.5-29.7c1-2.7 2.4-5 4.2-6.9 1.8-1.9 3.9-3.3 6.4-4.4 2.5-1 5.2-1.6 8-1.6s5.5.5 8 1.6c2.4 1 4.6 2.5 6.4 4.4 1.8 1.9 3.2 4.2 4.2 6.9s1.5 5.7 1.5 8.9-.5 6.3-1.5 9.1h-.1c-1 2.6-2.4 5.1-4.2 7.1-1.8 2-4 3.6-6.4 4.7-2.4 1.1-5.1 1.7-8 1.7s-5.6-.6-8-1.7c-2.5-1.1-4.6-2.7-6.4-4.7s-3.1-4.4-4.1-7.1c-1-2.7-1.5-5.8-1.5-9.1s.5-6.2 1.5-8.9ZM641.6 125.1l4.6-13.7c0-.3.5-.6.8-.6h30.9c.4 0 .7.2.8.6l4.9 13.7h33.6L680 29.7h-33.5l-37.6 95.4h32.7Zm12.3-38.6 8-24c0-.4.5-.6.8-.6s.7.2.8.6l7.8 24v.8c-.2.2-.4.4-.7.4h-15.8c-.3 0-.5-.1-.7-.4-.2-.2-.2-.5 0-.8ZM435.8 71.1c0-.2 0-.5.2-.6.2-.2.4-.3.6-.3h.7c.4 0 .7.2.8.6l17.6 54.3h21.8l17.9-54.2c.1-.4.5-.6.8-.6h.9c.4.2.7.6.7 1l-1 53.7h30.1V29.7h-42.6l-15.1 51.7h.3c0 .4-.5.6-.8.6h-.7c-.4 0-.7-.2-.8-.6l-17.4-51.7h-41.2v95.4h28.7l-1.5-54ZM554.2 207.8v-9c0-.5.4-.9.9-.9h33v-23.6h-33c-.5 0-.9-.4-.9-.9V165c0-.5.4-.9.9-.9h35.2v-25.4h-65.1v95.4h67.4v-25.4H555c-.5 0-.9-.4-.9-.9ZM786.7 86.3c.2-.2.2-.4.5-.5 5.3-2.4 9.4-5.8 12.2-10.2 2.8-4.4 4.2-9.5 4.2-15.2s-1.1-11-3.3-14.9-5.1-7.1-8.7-9.4c-3.6-2.3-7.7-4-12.3-5-4.6-.9-9.3-1.4-14-1.4h-41v95.4h30V90.8c.3 0 0 0 .3.1l20.7 34.2h35.2L786.7 87c0-.2-.2-.5 0-.7Zm-14.6-19.8c-.8 1.2-1.9 2.1-3.2 2.7-1.2.6-2.5 1.1-4 1.3-1.3.2-2.6.3-3.7.3h-6.4c-.5 0-.9-.4-.9-.9V54.3c0-.5.4-.9.9-.9h7.8c1 0 2.2 0 3.4.2 1.3.2 2.5.5 3.6 1 1.1.6 2.1 1.4 2.8 2.6s1.1 2.7 1.1 4.6-.5 3.5-1.3 4.7ZM716.8 215.4c-1.1-1.9-2.6-3.5-4.6-4.7s-4.2-1.7-6.8-1.7-4.7.6-6.7 1.7-3.4 2.7-4.5 4.6c-1.1 1.9-1.6 4.1-1.6 6.6s.5 4.6 1.7 6.6c1.1 2 2.6 3.6 4.5 4.7s4.2 1.7 6.7 1.7 4.8-.6 6.7-1.7 3.5-2.7 4.5-4.7 1.7-4.2 1.7-6.7-.5-4.6-1.7-6.5Zm-2.2 11.9c-.9 1.6-2.1 2.9-3.7 3.8-1.5.9-3.4 1.4-5.4 1.4s-3.8-.5-5.3-1.4c-1.5-.9-2.8-2.2-3.6-3.8-.9-1.6-1.3-3.4-1.3-5.4s.4-3.7 1.3-5.3c.9-1.6 2.1-2.8 3.6-3.8 1.5-.9 3.3-1.4 5.3-1.4s3.9.5 5.4 1.4c1.5.9 2.8 2.2 3.7 3.8.9 1.6 1.3 3.3 1.3 5.3s-.4 3.8-1.3 5.4ZM356.3 149.6c-4.7-4.3-10.4-7.6-16.9-10-6.5-2.3-13.6-3.5-21.1-3.5s-14.6 1.2-21.1 3.5c-6.5 2.3-12.1 5.7-16.8 10-4.7 4.3-8.4 9.6-11.1 15.7-2.7 6.1-4 13.1-4 20.7s1.4 14.7 4 20.9c2.7 6.3 6.4 11.7 11.1 16.1 4.7 4.4 10.4 7.9 16.8 10.3 6.5 2.4 13.6 3.6 21.1 3.6s14.6-1.2 21.1-3.6 12.1-5.9 16.9-10.3c4.7-4.4 8.5-9.9 11.2-16.1 2.7-6.3 4-13.3 4-20.9s-1.4-14.6-4-20.7c-2.7-6.1-6.4-11.4-11.2-15.7ZM337 195c-1 2.7-2.4 5.1-4.2 7.1-1.8 2-4 3.6-6.4 4.7-2.4 1.1-5.1 1.6-8 1.6s-5.6-.6-8-1.6c-2.5-1.1-4.6-2.7-6.4-4.7s-3.1-4.4-4.1-7.1-1.5-5.8-1.5-9.1.5-6.2 1.5-8.9 2.4-5 4.2-6.9c1.8-1.9 3.9-3.3 6.4-4.4 2.5-1.1 5.2-1.6 8-1.6s5.5.5 8 1.6 4.6 2.5 6.4 4.4c1.8 1.9 3.2 4.2 4.2 6.9s1.5 5.7 1.5 8.9-.5 6.3-1.5 9.1ZM847.2 99.6c-.5 0-.9-.4-.9-.9v-9c0-.5.4-.9.9-.9h33V65.2h-33c-.5 0-.9-.4-.9-.9v-8.4c0-.5.4-.9.9-.9h35.2V29.6h-65.1V125h67.4V99.6h-37.6Z" class="cp-logo-svg-words"/><path d="M709.5 221.9c.8-.8 1.2-1.7 1.2-2.8s-.4-2-1.2-2.7c-.8-.7-1.8-1.1-3.1-1.1h-5.2v13h2.8v-5.4h.3l3.9 5.4h3.4l-4.2-5.4c.8-.1 1.5-.5 2.1-1Zm-3.4-1.2H704v-3.2h2.1c.5 0 1 0 1.3.5.3.3.5.7.5 1.2s-.2.8-.5 1.1-.8.4-1.3.4ZM484.5 138.9h.1v-.1l-.1.1z" class="cp-logo-svg-words"/><path d="M474.2 192.7c0 .4-.4.7-.9.7h-.5c-.4 0-.8-.3-.9-.7l-12.1-53.9H427l-11.1 53.9c0 .4-.4.7-.9.7h-.5c-.4 0-.8-.3-.9-.7l-10.3-53.9h-32.7l26 95.4h31.6l14-54.2c.1-.4.5-.6.8-.6h.5c.4 0 .8.3.8.7l13.6 54.2h31.6l26.6-95.4h-31.5l-10.4 53.8ZM615.4 76.4h-.1c2.2-4 3.3-9 3.3-14.9s-1.1-11.3-3.3-15.3-5.2-7.3-8.8-9.7c-3.7-2.4-7.8-4.2-12.5-5.2s-9.5-1.6-14.4-1.6h-40.8v95.4h30.8V94.7c0-.5.4-.9.9-.9h9.2c4.9 0 9.8-.6 14.5-1.8s8.9-3.1 12.5-5.6c3.6-2.6 6.5-5.9 8.7-10Zm-30.9-7.6c-2.2 1.3-4.6 2-7.2 2h-6.9c-.5 0-.9-.4-.9-.9V54.2c0-.5.4-.9.9-.9h6.9c1.2 0 2.5.1 3.7.4 1.3.2 2.5.7 3.5 1.3 1.1.6 2 1.5 2.6 2.6.6 1.1.9 2.5.9 4.2 0 3.2-1.2 5.6-3.5 7ZM668.9 196.1c0-.2-.2-.5 0-.7.2-.2.2-.4.5-.5 5.3-2.4 9.4-5.8 12.2-10.2 2.8-4.4 4.2-9.5 4.2-15.2s-1.1-10.9-3.3-14.9c-2.2-3.9-5.1-7.1-8.7-9.4-3.6-2.4-7.7-4-12.3-4.9-4.6-.9-9.3-1.4-14-1.4h-41v95.4h30v-33.9c0-.5.4-.9.9-.9h1c.3 0 .6.2.8.5l18.4 34.3H693h-.3c0-.1-23.8-38.2-23.8-38.2Zm-14.7-20.4c-.8 1-1.9 2-3.2 2.6-1.2.6-2.5 1.1-4 1.3-1.3.2-2.6.3-3.7.3h-6.4c-.5 0-.9-.4-.9-.9v-15.6c0-.5.4-.9.9-.9h7.8c1 0 2.2 0 3.4.2 1.3 0 2.5.5 3.6 1.1 1.1.6 2.1 1.4 2.8 2.6.7 1.1 1.1 2.7 1.1 4.6s-.5 3.5-1.3 4.7Z" class="cp-logo-svg-words"/><path d="m208.2 127.9-61-105.6-22.3 83.3 41.6 11.1-105.6 61 83.3 22.3 22.3-83.3 41.7 11.2z" class="cp-logo-svg-red-arrow"/><path d="M147.2 22.3 63.9 0 41.6 83.2 0 72.1l61 105.6 22.3-83.3-41.6-11.1 105.5-61z" class="cp-logo-svg-blue-arrow"/><path d="m61 177.7 105.6-61-41.6-11.2 22.3-83.3-105.6 61 41.6 11.2L61 177.7Z" class="cp-logo-svg-bolt"/></svg>