<svg xmlns="http://www.w3.org/2000/svg" id="_2_copy" data-name="2 copy" viewBox="0 0 600 300"><defs><style>.cls-1{fill:#273a80}.cls-1,.cls-2,.cls-4,.cls-5{stroke-width:0}.cls-2{fill:#8a1a9b}.cls-4{fill:#80bc00}.cls-5{fill:#0082ca}</style></defs><path d="M167.6 221.3c-34.1 1.4-51.2-42.7-27.2-65.9 14.9-15.2 45.8-14.3 56.9 3.7l-6 4.4c-22.4-28.8-64.9-1.1-51.5 31.9 7.4 21.7 40.2 25.5 52.5 6.2l6.1 4.3c-6.7 10.2-18.9 15.7-30.8 15.4M207.9 145.7h7.9v42.1h40v-42.1h7.9v74.8h-7.9v-25.4h-40v25.4h-7.9v-74.8zM351.9 168.5c-1.8-2.2-3.6-4.5-5.2-6.9 1.2 4.6.5 53.1.7 58.9h-7.5V145h1.3c3 3.8 49.2 57.2 49.9 59.7-.9-4.6-.4-53.1-.5-58.9h7.3v75.5h-1.3l-44.7-52.8ZM446.6 221.3c-27.8 1.5-47.3-28.8-36.2-53.8 8.8-23.6 43.9-30.8 61.6-13.2l-5.4 5.4c-14.1-14.5-42.1-8.2-48.7 10.9-12.2 32.4 24 56.4 50.8 36.8V195h-22.2v-7.3h29.7V211c-8.5 7.5-17.6 10.2-29.6 10.3M486.8 145.7h45.5v7h-37.5v35.1h33.5v7.3h-33.5v18.3h39.1v7.1h-47.1v-74.8zM301.6 143.4l-31.9 77.1h7.3c2-4.9 8.6-20.9 10.8-25.4h27.7c2.1 4.8 8.8 20.4 11 25.4h7.3l-32.2-77.1Zm0 19.2 10.7 25.2h-21.4l10.7-25.2Z" class="cls-1"/><path d="M123 196.2v6.2h-9.5v18.2h-7.6v-18.2H66.6l46.8-53.3v47.1h9.6Zm-17.1-21.1c.1-1.8.1-5.1.1-6.8-5.8 6.2-18.2 22.2-24.3 28H106l-.1-21.2ZM317.4 10l-40.3 23.6v39.3l20.9-2.3L317.4 10z" class="cls-4"/><path d="m294.5 104.6 26.5 28.9 13.9-43.7-29.5-4.8-10.9 19.6zM351.3 38.1l-15.9-6.8-20.9 37.5 28.1-3.2 8.7-27.5z" class="cls-5"/><path d="m298 70.6-4 12.5 11.4 1.9 9.1-16.2-16.5 1.8zM357.7 63.9l-15.1 1.7-7.7 24.2 13.7 2.2 9.1-28.1z" class="cls-2"/><path d="M277.1 72.9 294 83.1l4-12.5-20.9 2.3z" style="fill:#5b3536;stroke-width:0"/><path d="M314.5 68.8 305.4 85l29.5 4.8 7.7-24.2-28.1 3.2z" class="cls-1"/><path d="M139.9 268.8c-16.6 11-31.2-11.7-19.5-25.2 10-11.1 26.6-.6 24.5 13.2h-23.2c-1.6 10.3 15.3 14.7 17.6 4.1h5c-.5 3.2-2.1 6-4.4 7.9m-1.3-19.9c-3.4-8.7-17.1-5.9-17 3.4h17.8c-.1-1.1-.4-2.3-.8-3.4M160.4 239.8v4.9h.1c3.2-6.4 13.6-7.7 18.5-2.5 4.2 4.9 1.6 22.6 2.3 28.5h-5.1v-21c.3-3.2-2.1-6-5.3-6.2-14.2-1.7-9.3 19.1-10.1 27.2h-5.1v-31l4.7.1ZM215.1 268.8c-16.6 11-31.2-11.7-19.5-25.2 10-11.1 26.5-.6 24.5 13.2h-23.2c-1.6 10.3 15.4 14.7 17.7 4.1h5c-.5 3.2-2.1 6-4.5 7.9m-1.3-19.9c-3.4-8.7-17.1-5.9-17 3.4h17.8c0-1.1-.3-2.3-.8-3.4M236.6 239.8v6.5h.1c1.9-4.5 6.4-7.7 11.4-7.2v5.4c-14.3-1.2-10.9 17.3-11.2 26.3h-5.1v-31h4.8ZM278.8 279.5c-5.3 6-23.2 5.5-23.7-5.3h5.1c2.6 8.9 19.5 6.6 17.3-8.7h-.1c-7 12.3-25.3 2.6-23.5-10.1-1.8-12.6 15.8-23.2 23.5-11.2h.1v-4.4h4.8c-.9 7.9 2.7 34.1-3.5 39.7m-6.4-13.9c9.5-5.9 4.7-27.1-8.1-21.1-9.8 5.5-4.6 27.6 8.1 21.1M305.8 278.7c-1.9 4.1-6.7 5.3-10.8 3.9v-4.7c5.9 2.9 7.7-3 9.3-7.3L292 239.8h5.8l9 25.3h.1l8.7-25.3h5.4c-.8 1.7-14.7 38.8-15.2 38.9" class="cls-2"/></svg>