<?xml version="1.0" encoding="UTF-8"?>
<svg id="_2_copy" data-name=" 2 copy" xmlns="http://www.w3.org/2000/svg" xmlns:xlink="http://www.w3.org/1999/xlink" viewBox="0 0 600 300">
  <defs>
    <style>
      .cls-1 {
        fill: url(#radial-gradient);
      }

      .cls-1, .cls-2, .cls-3, .cls-4, .cls-5, .cls-6, .cls-7, .cls-8, .cls-9, .cls-10, .cls-11, .cls-12, .cls-13 {
        stroke-width: 0px;
      }

      .cls-2 {
        fill: url(#radial-gradient-11);
      }

      .cls-3 {
        fill: url(#radial-gradient-10);
      }

      .cls-4 {
        fill: url(#radial-gradient-2);
      }

      .cls-5 {
        fill: url(#radial-gradient-3);
      }

      .cls-6 {
        fill: url(#radial-gradient-4);
      }

      .cls-7 {
        fill: url(#radial-gradient-6);
      }

      .cls-8 {
        fill: url(#radial-gradient-9);
      }

      .cls-9 {
        fill: url(#radial-gradient-8);
      }

      .cls-10 {
        fill: url(#radial-gradient-5);
      }

      .cls-11 {
        fill: url(#radial-gradient-7);
      }

      .cls-12 {
        fill: #383838;
      }

      .cls-13 {
        fill: #c30c14;
      }
    </style>
    <radialGradient id="radial-gradient" cx="1413.12" cy="-1853.09" fx="1413.12" fy="-1853.09" r="162.37" gradientTransform="translate(-1887.65 356.71) rotate(-57.94) scale(1 -1)" gradientUnits="userSpaceOnUse">
      <stop offset="0" stop-color="#ffe600"/>
      <stop offset=".5" stop-color="#ff9000"/>
      <stop offset="1" stop-color="#c30c14"/>
    </radialGradient>
    <radialGradient id="radial-gradient-2" cx="1413.12" cy="-1853.09" fx="1413.12" fy="-1853.09" r="162.37" xlink:href="#radial-gradient"/>
    <radialGradient id="radial-gradient-3" cx="1413.12" cy="-1853.09" fx="1413.12" fy="-1853.09" r="162.37" xlink:href="#radial-gradient"/>
    <radialGradient id="radial-gradient-4" cx="1413.12" cy="-1853.09" fx="1413.12" fy="-1853.09" r="162.37" xlink:href="#radial-gradient"/>
    <radialGradient id="radial-gradient-5" cy="-1853.09" fy="-1853.09" r="162.37" xlink:href="#radial-gradient"/>
    <radialGradient id="radial-gradient-6" cx="1413.12" fx="1413.12" r="162.37" xlink:href="#radial-gradient"/>
    <radialGradient id="radial-gradient-7" cx="1413.12" cy="-1853.09" fx="1413.12" fy="-1853.09" r="162.37" xlink:href="#radial-gradient"/>
    <radialGradient id="radial-gradient-8" cx="1413.12" fx="1413.12" r="162.37" xlink:href="#radial-gradient"/>
    <radialGradient id="radial-gradient-9" cx="1413.12" cy="-1853.09" fx="1413.12" fy="-1853.09" r="162.37" xlink:href="#radial-gradient"/>
    <radialGradient id="radial-gradient-10" cy="-1853.09" fy="-1853.09" r="162.37" xlink:href="#radial-gradient"/>
    <radialGradient id="radial-gradient-11" cx="1413.12" cy="-1853.09" fx="1413.12" fy="-1853.09" r="162.37" xlink:href="#radial-gradient"/>
  </defs>
  <path class="cls-12" d="m350.1,185.36c-6.01,9.58-14.81,24.01-14.41,32.62.2,2.6-3,2.8-5,2.2-15.2-5.2-11.17-27.62,7.61-54.03,5.2-7.18-5-3.61-8.6-1.4-8.2,5-12.21,7.8-25.01,20.21-11.21,11.01-21.42,26.41-25.02,31.62-2,3-7.41,2.39-11.6.4-5.59-2.8-5.8-9.2-3-15.2,3-6.61,10.81-19.21,20.41-32.62,8.2-11.41-2.2-6.61-5.8-4.41-8.2,5-12.2,7.8-25.01,20.21-11.17,11.01-22.22,27.82-25.82,33.02-2,3-7.41,2.39-11.6.4-5.2-2.6-6.38-10.01,1.8-23.41,4.18-7,10.57-16.41,16.58-25.82,6.38-10.01,9.2-14.41,13.57-20.21,2.2-3,3.8-3.6,7.41-3.6,2,0,4.4.4,7.18,3,4.41,4.2,1.6,10.61-1.6,15.81-3,4.79-6.81,10.37-13.81,19.81,13.41-14.6,30.61-31.62,49.82-37.02,5.4-1.6,11-1.6,14.01,1.01,7.8,6.8,2.39,13.01,1.01,15-5.31,6.74-10.25,13.75-14.81,21.01,23.21-24.01,42.62-35.22,53.03-38.02,5.4-1.6,11-1.4,14.01,1,7.18,6.01,1.4,12.61,0,14.81-4.94,7.81-7.75,11.61-15.31,23.62Zm54.65-21.21c-6.21,9-30.42,45.22-29.81,57.03.2,2.8-3.81,1.8-4.41,1.4-6.81-3.8-9.41-13-7.41-23.61,1.21-6.21,4.21-12.61,7.61-18.81,3.6-6.61,16.41-26.22,19.61-30.01,1.4-1.6,3-3.99,7.61-3.81,5.8.2,9,3.81,9.81,5.4,2.2,4.41-.84,9.42-3.03,12.41h.03Zm12.68,102.65c-9.4.2-24.61-2.39-31.82-8.6-2.6-2.2-4.79-7.61-1.2-11,2.39-2.2,6.38-2.2,7,.6,1.21,5,8.2,9.58,16.81,10.61,18.21,2,27.81-9.41,28.21-18.41.8-16.61-18.81-15.41-31.82-14.2-4.4.4-10.2-2.6-4.79-9.81,2-2.6,6.38-8.6,9.58-5.4,1.01,1.2,1.01,2.6.2,3.4-1.6,1.6-4.2,4.41,1.4,3.81,18.21-2.2,51.03-3,47.43,22.01-2.2,15.61-24.44,26.61-41.04,27.01h.03Zm71.61-102.25c-3.19,1.2-10.61,1.4-14.81-.8-5.4,20.8-30.01,47.62-54.23,47.62-37.22,0-2-64.23,35.62-68.03,2.81-.2,6.81-.4,8.61,2.8,2.2,3.81-2.8,3.4-5.2,3.99-16.62,4.4-40.22,44.42-32.62,50.62,5.8,4.79,28.81-11.8,37.82-41.82,1-3.19.6-8.2,5.2-8.78,1.76-.31,3.56.29,4.79,1.6,3.61,2.6,9.01,7.41,17.21,6.2,3.21-.41,5.21,3.6-2.39,6.6Zm-.12,55.86c-31.82,0,.8-75.81,42.22-75.81,3.6,0,6.8.4,8.4,2.59.4.61,2,3.41.4,3.41-1.82-.19-3.66.02-5.4.6-10.01,3.19-16.41,8.78-24.61,20.01-8.2,11.23-15.39,30.76-10.81,34.56,5.59,4.6,28.41-11,38.82-45.22.4-1.6.61-7.6,6.81-7.4,2.59.05,4.65,2.19,4.6,4.78,0,0,0,0,0,0,0,23.82-34.62,62.45-60.4,62.45l-.04.03Zm-302.52,7.08c-13.57,0-24.09-7.57-24.09-24.87,0-14.96,5.83-30.88,13.99-46.62-14.82.88-29.54,2.87-44.06,5.96-40.06,54.27-52.88,95.41-57.55,95.41-3.69,0-9.71-5.63-9.71-14.57,0-15.54,15.74-43.09,39.63-73.04-27.39,9.33-41.96,20.01-45.06,20.01-3.5,0-9.72-6.03-9.72-9.33,0-4.08,23.32-16.51,66.24-24.28l2.92-3.5c56.53-64.5,89.95-89.75,105.1-89.75,5.44,0,13.57,7.18,13.57,14.76,0,14.18-17.48,43.09-33.8,71.68,14.18,1.17,19.62,5.25,19.62,6.38-.17,1.43-1.29,2.55-2.72,2.71-1.75,0-7.98-2.71-20.2-3.3-13.02,23.14-24.28,45.26-24.28,58.47,0,5.24,2.72,6.8,5.63,6.8,15.16,0,37.68-28.56,44.1-36.53.8-.97,1.17-1.55,1.75-1.55,1.75,0,3.3,2.14,3.3,3.5,0,1.17-.58,2.33-1.6,3.89-5.75,9.35-29.26,37.72-43.05,37.72v.03Zm-6.61-77.9c19.62-34.78,48.76-66.83,48.76-78.68.09-1.07-.68-2.02-1.75-2.14-7.77,0-49.53,35.35-87.03,83.34-.19.19-.38.39-.38.58,13.41-1.72,26.89-2.77,40.4-3.14v.03Z"/>
  <path class="cls-1" d="m516.2,107.7l-72.37,17.31c-.74.18-1.49-.26-1.71-.99h0c-.21-.73.18-1.51.9-1.76l70.23-24.65c2.74-.96,5.75.48,6.71,3.22.03.09.06.17.08.26h0c.82,2.79-.78,5.72-3.57,6.54-.09.03-.18.05-.27.07Z"/>
  <path class="cls-4" d="m295.51,91.48l68.56,28.53c.72.31,1.07,1.13.8,1.86h0c-.26.74-1.06,1.15-1.82.93l-71.13-21.24c-2.83-.84-4.45-3.82-3.61-6.66.03-.09.06-.18.09-.27h0c.99-2.79,4.05-4.25,6.84-3.26.09.03.18.07.27.11Z"/>
  <path class="cls-5" d="m343.52,85.44l27.24,23.23c.61.51.7,1.41.22,2.04h0c-.48.63-1.38.77-2.03.32l-29.42-20.41c-1.48-1.02-1.86-3.06-.83-4.54.03-.05.07-.1.11-.14h0c1.1-1.43,3.14-1.7,4.58-.61.05.04.09.07.14.11Z"/>
  <path class="cls-6" d="m351.9,53.01l28.73,46.96c.42.68.23,1.57-.43,2.02h0c-.66.45-1.55.3-2.03-.33l-33.36-43.8c-1.44-1.89-1.08-4.58.81-6.02.06-.05.12-.09.19-.14h0c1.95-1.34,4.63-.85,5.97,1.11.04.06.09.13.13.2Z"/>
  <path class="cls-10" d="m384.42,59.99l8.34,34.79c.19.77-.26,1.55-1.02,1.77h0c-.76.22-1.56-.19-1.82-.93l-11.88-33.76c-.61-1.72.3-3.61,2.02-4.21.06-.02.11-.04.17-.05h0c1.74-.54,3.59.42,4.13,2.16.03.08.05.16.07.24Z"/>
  <path class="cls-7" d="m411.76,19.51l-5.93,74.01c-.06.8-.73,1.41-1.53,1.38h0c-.8-.02-1.44-.66-1.46-1.46l-1.77-74.22c-.07-2.96,2.27-5.41,5.22-5.48.09,0,.19,0,.28,0h0c2.96.08,5.28,2.55,5.2,5.5,0,.09,0,.18-.01.27Z"/>
  <path class="cls-11" d="m465.81,61.24l-35.83,41.86c-.51.6-1.41.69-2.03.22h0c-.62-.49-.76-1.37-.31-2.02l31.34-45.3c1.35-1.95,4.02-2.44,5.97-1.09.06.04.12.09.18.13h0c1.89,1.43,2.26,4.13.83,6.02-.05.06-.09.12-.14.18Z"/>
  <path class="cls-9" d="m469.21,94.25l-30.53,18.73c-.67.41-1.55.22-2-.42h0c-.45-.65-.3-1.54.33-2.02l28.5-21.69c1.45-1.09,3.51-.79,4.59.66.03.05.07.09.1.14h0c1.01,1.51.6,3.54-.9,4.55-.03.02-.06.04-.09.06Z"/>
  <path class="cls-8" d="m432.3,63.29l-13.65,33.1c-.31.72-1.13,1.07-1.87.8h0c-.75-.26-1.16-1.06-.93-1.82l10.3-34.32c.52-1.73,2.35-2.72,4.09-2.2.05.02.1.03.15.05h0c1.71.62,2.59,2.51,1.97,4.21-.02.06-.04.11-.07.17Z"/>
  <path class="cls-3" d="m403.86,110.57c14.95.44,27.92,10.41,32.19,24.74-.04-18.16-14.8-32.86-32.96-32.82-17.39.04-31.75,13.61-32.76,30.97,5.06-14.07,18.58-23.3,33.53-22.9Z"/>
  <path class="cls-2" d="m403.57,122.3c13.14.38,24.93,8.17,30.44,20.11-1.52-17.17-16.67-29.85-33.83-28.33-14.4,1.28-26.04,12.28-28.12,26.59,6.17-11.61,18.38-18.73,31.52-18.37Z"/>
  <path class="cls-13" d="m157.62,274.59c-2.73.07-5.44-.58-7.84-1.88-2.25-1.3-4.04-3.27-5.1-5.64-1.27-2.94-1.88-6.13-1.79-9.34,0-5.49,1.24-9.6,3.73-12.34,2.49-2.74,5.9-4.11,10.23-4.11,3.4,0,6.13.77,8.2,2.3,2.08,1.55,3.63,3.71,4.43,6.18.93,2.83,1.36,5.8,1.28,8.78h-25.54l.32-4.21h22.26l-1.79.64c-.13-3.19-.93-5.57-2.39-7.14s-3.71-2.37-6.73-2.39c-1.8-.06-3.59.33-5.2,1.15-1.49.9-2.59,2.32-3.1,3.99-.77,2.57-1.12,5.26-1.02,7.94,0,3.87.9,6.81,2.71,8.83,1.81,2.02,4.35,3.03,7.62,3.03,1.45,0,2.9-.11,4.33-.35,1.24-.21,2.46-.54,3.64-.99,1.02-.38,2-.85,2.93-1.4v4.72c-1.62.75-3.32,1.31-5.07,1.66-2.02.4-4.07.59-6.12.57Z"/>
  <path class="cls-13" d="m184.68,244.36c1.04-.51,2.1-.97,3.19-1.36,1.08-.41,2.19-.74,3.32-.99,1.13-.26,2.28-.45,3.44-.57,1.18-.13,2.36-.19,3.54-.19,2.54-.11,5.06.36,7.39,1.37,1.75.83,3.16,2.24,3.99,3.99.88,1.99,1.3,4.14,1.24,6.31v20.75h-4.6v-20.72c0-.81-.1-1.61-.29-2.39-.2-.88-.58-1.72-1.11-2.46-.65-.87-1.54-1.53-2.55-1.92-1.47-.54-3.03-.79-4.59-.73-1.37,0-2.73.11-4.09.32-1.44.22-2.87.54-4.27.96v26.97h-4.6l-.03-29.33Z"/>
  <path class="cls-13" d="m239.65,274.59c-2.73.07-5.44-.58-7.84-1.88-2.25-1.3-4.04-3.27-5.1-5.64-1.28-2.94-1.89-6.13-1.79-9.34,0-5.49,1.24-9.6,3.73-12.34,2.48-2.74,5.9-4.11,10.24-4.11,3.4,0,6.13.77,8.2,2.3,2.08,1.55,3.63,3.72,4.43,6.18.93,2.83,1.36,5.8,1.28,8.78h-25.58l.32-4.21h22.27l-1.79.64c-.13-3.19-.92-5.59-2.39-7.14s-3.71-2.39-6.73-2.39c-1.8-.06-3.59.33-5.2,1.15-1.49.9-2.6,2.32-3.1,3.99-.76,2.58-1.1,5.26-.99,7.95,0,3.87.9,6.81,2.71,8.83,1.81,2.02,4.35,3.03,7.62,3.03,1.45,0,2.9-.11,4.33-.35,1.24-.21,2.46-.54,3.63-.99,1.02-.38,2-.85,2.94-1.4v4.72c-1.62.75-3.32,1.31-5.07,1.66-2.01.4-4.06.59-6.11.57Z"/>
  <path class="cls-13" d="m266.71,273.63v-29.27c.51-.21,1.5-.57,2.97-1.08,1.73-.58,3.5-1.05,5.29-1.4,2.1-.43,4.24-.64,6.38-.64.34,0,.69.04,1.02.13l1.02.26v4.08c-1.06-.12-2.13-.19-3.19-.19-1.01,0-2.03.05-3.03.16-.97.11-1.96.25-2.93.41l-2.94.51v27.04h-4.6Z"/>
  <path class="cls-13" d="m308.53,274.59c-2.84.11-5.65-.56-8.13-1.95-2.14-1.3-3.81-3.24-4.79-5.55-1.12-2.7-1.66-5.6-1.6-8.52-.11-3.03.39-6.05,1.47-8.89.8-2.04,2.1-3.84,3.79-5.24,1.5-1.18,3.24-2.03,5.1-2.48,1.77-.44,3.58-.66,5.39-.67,1.93-.01,3.85.26,5.71.8,1.67.46,3.2,1.32,4.46,2.51,1.2,1.22,1.84,2.89,1.76,4.6v25.76c0,1.32-.2,2.62-.57,3.89-.41,1.36-1.12,2.62-2.07,3.67-1.16,1.23-2.61,2.16-4.21,2.71-2.25.75-4.61,1.09-6.98,1.01-1.69.02-3.38-.16-5.04-.51-1.53-.34-2.86-.65-3.99-.95v-4.34c.68.17,1.45.38,2.33.61s1.83.44,2.86.61c1.11.17,2.23.26,3.35.26,2.89,0,5.02-.35,6.38-1.05,1.19-.51,2.15-1.44,2.71-2.61.42-1.01.63-2.1.63-3.19v-4.65l1.6,1.6c-.98.5-2,.9-3.06,1.21-1.24.38-2.5.7-3.77.96-1.1.24-2.22.38-3.34.41Zm0-4.21c1.45-.01,2.89-.19,4.3-.54,1.49-.35,2.92-.92,4.24-1.69v-18.3c.07-1-.29-1.99-.98-2.71-.75-.66-1.67-1.1-2.65-1.28-1.18-.24-2.37-.36-3.58-.35-3.1,0-5.43.61-7.01,1.82-1.57,1.2-2.69,2.88-3.19,4.79-.55,2.1-.82,4.27-.8,6.44,0,3.49.74,6.33,2.23,8.52s3.97,3.29,7.44,3.31h0Z"/>
  <path class="cls-13" d="m339.89,285.95c-.58,0-1.15-.06-1.72-.2-.43-.1-.86-.22-1.28-.38v-4.21c.37.15.76.28,1.15.38.52.13,1.06.2,1.6.19,1.28.06,2.53-.38,3.5-1.21.97-.92,1.74-2.02,2.27-3.25.66-1.47,1.22-2.99,1.68-4.53v1.85l-13.52-32.78h5.24l10.58,27.13h-.96l10.53-27.13h4.59l-13.65,34.95c-.73,2.08-1.81,4.02-3.19,5.74-.95,1.15-2.15,2.08-3.5,2.71-1.05.46-2.18.71-3.32.73Z"/>
</svg>