<svg id="Layer_1" data-name="Layer 1" xmlns="http://www.w3.org/2000/svg" viewBox="0 0 1010 384.38"><defs><style>.cls-1{fill:#f15c22;}.cls-2{fill:#888;}.cls-3{fill:#0e385f;}</style></defs><title>logo</title><path class="cls-1" d="M239.7,187.94,69.1,51.18a186.26,186.26,0,0,0-55.39,84.69c-.32,1-.61,2-.91,3L238,191.07C238.57,190,239.13,189,239.7,187.94Z"/><path class="cls-1" d="M227.56,219.92,12.69,139.28a186.23,186.23,0,0,0-1.65,100l215.85-16.08C227.1,222.09,227.32,221,227.56,219.92Z"/><path class="cls-1" d="M225.56,259,11.41,240.69a188.13,188.13,0,0,0,46.38,81.79L225.9,261.62C225.78,260.75,225.66,259.87,225.56,259Z"/><path class="cls-1" d="M260.74,160.63,153.63,9a188,188,0,0,0-83.21,41L257.55,163.82Q259.11,162.2,260.74,160.63Z"/><path class="cls-1" d="M326.14,128.5l-8.07-74.84A186.25,186.25,0,0,0,261.14,18.2l59.11,111.31Q323.18,128.94,326.14,128.5Z"/><path class="cls-1" d="M290.65,139.6,242.23,11.86a186.19,186.19,0,0,0-82.59-4L285.47,142.32Q288,140.9,290.65,139.6Z"/><path class="cls-1" d="M360.44,128.37,362.67,115a188.12,188.12,0,0,0-19.32-33.17L354,127.64C356.17,127.82,358.31,128.07,360.44,128.37Z"/><path class="cls-1" d="M234.88,293.11l-174,32.52a186.33,186.33,0,0,0,74.51,44.89l101.16-73.74C236,295.56,235.43,294.35,234.88,293.11Z"/><path class="cls-1" d="M255,324.34,147.64,374a186.09,186.09,0,0,0,68.27,3.91l42.81-49.5Q256.8,326.39,255,324.34Z"/><path class="cls-2" d="M275.79,361.26H265.08v10.42H261V347.23h16.51v3.28H265.08V358h10.71Z"/><path class="cls-2" d="M291.42,368.4h11.23v3.27H287.34V347.23h4.08Z"/><path class="cls-2" d="M327.11,360.68H316.42v7.72h12.41v3.27H312.34V347.23h16.37v3.28H316.42v6.9h10.69Z"/><path class="cls-2" d="M346.9,356.27l5.16-9h4.84l-7.52,12.12,7.8,12.32h-4.9l-5.3-9.18-5.3,9.18h-4.84l7.69-12.32L337,347.23h4.8Z"/><path class="cls-2" d="M371.2,371.68h-4.08V347.23h4.08Z"/><path class="cls-2" d="M383.17,371.68V347.23h8.12a10.56,10.56,0,0,1,6.35,1.67,5.79,5.79,0,0,1,2.28,5,4.91,4.91,0,0,1-1,3,5.64,5.64,0,0,1-2.66,1.95,5.46,5.46,0,0,1,3.36,2.1,6.2,6.2,0,0,1,1.18,3.75,6.29,6.29,0,0,1-2.25,5.23,9.74,9.74,0,0,1-6.21,1.79Zm4.08-14.15h4.5a4.61,4.61,0,0,0,3-.9,3.1,3.1,0,0,0,1.1-2.54,3.17,3.17,0,0,0-1.16-2.7,5.54,5.54,0,0,0-3.39-.88h-4Zm0,3v7.84h5.13a4.91,4.91,0,0,0,3.26-1,3.44,3.44,0,0,0,1.14-2.79,4.36,4.36,0,0,0-1-3,3.8,3.8,0,0,0-3-1.07Z"/><path class="cls-2" d="M415.67,368.4H426.9v3.27H411.59V347.23h4.08Z"/><path class="cls-2" d="M451.36,360.68H440.67v7.72h12.4v3.27H436.58V347.23H453v3.28H440.67v6.9h10.69Z"/><path class="cls-2" d="M477.48,358.23a3.54,3.54,0,0,1,1-2.59,3.64,3.64,0,0,1,2.7-1,3.69,3.69,0,0,1,2.73,1,3.5,3.5,0,0,1,1,2.6v1.29a3.45,3.45,0,0,1-1,2.59,4.23,4.23,0,0,1-5.43,0,3.45,3.45,0,0,1-1-2.58Z"/><path class="cls-2" d="M524.47,366H514.9L513,371.68h-4.13l9-24.44h3.86l8.88,24.44H526.4Zm-8.39-3.41h7.23l-3.54-10.44h-.1Z"/><path class="cls-2" d="M554.57,361.26H543.86v10.42h-4.08V347.23h16.5v3.28H543.86V358h10.71Z"/><path class="cls-2" d="M580.91,361.26H570.2v10.42h-4.08V347.23h16.5v3.28H570.2V358h10.71Z"/><path class="cls-2" d="M611.51,361.66a10.33,10.33,0,0,1-2.81,7.43,9.64,9.64,0,0,1-7.3,2.95,9.32,9.32,0,0,1-7.14-2.95,10.49,10.49,0,0,1-2.74-7.43v-4.4a10.5,10.5,0,0,1,2.74-7.42,9.29,9.29,0,0,1,7.13-3,9.64,9.64,0,0,1,7.3,3,10.33,10.33,0,0,1,2.82,7.42Zm-4.06-4.43a7.56,7.56,0,0,0-1.64-5,5.45,5.45,0,0,0-4.42-2,5.12,5.12,0,0,0-4.25,2,7.81,7.81,0,0,0-1.56,5v4.43a7.9,7.9,0,0,0,1.56,5.06,5.14,5.14,0,0,0,4.26,2,5.43,5.43,0,0,0,4.43-2,7.71,7.71,0,0,0,1.62-5.07Z"/><path class="cls-2" d="M626.41,361.54v10.14h-4.08V347.23h9a9.71,9.71,0,0,1,6.33,1.84,6.47,6.47,0,0,1,2.23,5.28,5.47,5.47,0,0,1-1,3.26,6.75,6.75,0,0,1-2.87,2.19,5.08,5.08,0,0,1,3,2.14,6.87,6.87,0,0,1,.91,3.65v2a8.16,8.16,0,0,0,.27,2.1,2.94,2.94,0,0,0,.91,1.56v.39h-4.2a2.74,2.74,0,0,1-.87-1.75,14.52,14.52,0,0,1-.19-2.33v-2a4.12,4.12,0,0,0-1.08-3,3.92,3.92,0,0,0-3-1.11Zm0-3.28h4.73a5.55,5.55,0,0,0,3.58-.94,3.53,3.53,0,0,0,1.12-2.87,3.8,3.8,0,0,0-1.11-2.9,4.75,4.75,0,0,0-3.38-1h-5Z"/><path class="cls-2" d="M651.49,371.68V347.23h7.92a10.26,10.26,0,0,1,7.57,2.91,10.11,10.11,0,0,1,2.91,7.47v3.71a10.06,10.06,0,0,1-2.91,7.47,10.28,10.28,0,0,1-7.57,2.89Zm4.08-21.17V368.4h3.73a6,6,0,0,0,4.78-2,7.48,7.48,0,0,0,1.74-5.12v-3.74a7.42,7.42,0,0,0-1.74-5.08,6,6,0,0,0-4.78-2Z"/><path class="cls-2" d="M693.35,366h-9.57l-2,5.71h-4.13l9-24.44h3.86l8.88,24.44h-4.15ZM685,362.56h7.24l-3.54-10.44h-.1Z"/><path class="cls-2" d="M708.66,371.68V347.23h8.12a10.56,10.56,0,0,1,6.35,1.67,5.79,5.79,0,0,1,2.28,5,4.89,4.89,0,0,1-1,3,5.61,5.61,0,0,1-2.65,1.95,5.46,5.46,0,0,1,3.36,2.1,6.2,6.2,0,0,1,1.18,3.75,6.29,6.29,0,0,1-2.25,5.23,9.75,9.75,0,0,1-6.22,1.79Zm4.08-14.15h4.5a4.6,4.6,0,0,0,3-.9,3.1,3.1,0,0,0,1.1-2.54,3.17,3.17,0,0,0-1.15-2.7,5.54,5.54,0,0,0-3.39-.88h-4Zm0,3v7.84h5.13a4.9,4.9,0,0,0,3.26-1,3.43,3.43,0,0,0,1.14-2.79,4.36,4.36,0,0,0-1-3,3.8,3.8,0,0,0-3-1.07Z"/><path class="cls-2" d="M741.17,368.4H752.4v3.27H737.09V347.23h4.08Z"/><path class="cls-2" d="M776.86,360.68H766.16v7.72h12.4v3.27H762.08V347.23h16.37v3.28H766.16v6.9h10.69Z"/><path class="cls-2" d="M803,358.23a3.54,3.54,0,0,1,1-2.59,3.64,3.64,0,0,1,2.71-1,3.69,3.69,0,0,1,2.73,1,3.5,3.5,0,0,1,1,2.6v1.29a3.45,3.45,0,0,1-1,2.59,4.23,4.23,0,0,1-5.43,0,3.44,3.44,0,0,1-1-2.58Z"/><path class="cls-2" d="M851.49,360.68H840.8v7.72h12.4v3.27H836.72V347.23h16.37v3.28H840.8v6.9h10.69Z"/><path class="cls-2" d="M882.13,371.68h-4.06l-10.85-17.84-.1,0v17.81H863V347.23h4.08L878,365.06l.11,0v-17.8h4.06Z"/><path class="cls-2" d="M908.66,360.68H898v7.72h12.41v3.27H893.89V347.23h16.37v3.28H898v6.9h10.69Z"/><path class="cls-2" d="M924.29,361.54v10.14h-4.08V347.23h9a9.71,9.71,0,0,1,6.33,1.84,6.46,6.46,0,0,1,2.23,5.28,5.45,5.45,0,0,1-1,3.26,6.73,6.73,0,0,1-2.87,2.19,5.1,5.1,0,0,1,3,2.14,6.9,6.9,0,0,1,.9,3.65v2a8.25,8.25,0,0,0,.27,2.1,2.93,2.93,0,0,0,.91,1.56v.39h-4.2a2.74,2.74,0,0,1-.87-1.75,14.76,14.76,0,0,1-.19-2.33v-2a4.12,4.12,0,0,0-1.07-3,3.93,3.93,0,0,0-3-1.11Zm0-3.28H929a5.55,5.55,0,0,0,3.58-.94,3.53,3.53,0,0,0,1.12-2.87,3.8,3.8,0,0,0-1.11-2.9,4.74,4.74,0,0,0-3.38-1h-5Z"/><path class="cls-2" d="M967.58,368.37a8.5,8.5,0,0,1-3.2,2.53,12.59,12.59,0,0,1-5.72,1.14,10,10,0,0,1-7.27-2.8,9.68,9.68,0,0,1-2.85-7.23v-5.1a10,10,0,0,1,2.69-7.22,9.23,9.23,0,0,1,7-2.8,9.77,9.77,0,0,1,6.71,2.12,7.21,7.21,0,0,1,2.44,5.53l0,.1h-3.86a4.72,4.72,0,0,0-1.44-3.25,5.26,5.26,0,0,0-3.77-1.23,5,5,0,0,0-4.09,1.89,7.35,7.35,0,0,0-1.55,4.82V362a7.06,7.06,0,0,0,1.68,4.86,5.58,5.58,0,0,0,4.37,1.9,9.05,9.05,0,0,0,3.11-.44,4.3,4.3,0,0,0,1.73-1v-5h-4.85v-3.06h8.93Z"/><path class="cls-2" d="M987,359.12l5.91-11.89h4.55l-8.48,15.87v8.58h-4.07v-8.8l-8.34-15.65h4.55Z"/><path class="cls-3" d="M331.11,144.61h17.61l75.91,167.77H404.41l-19.51-44H294.23l-19.75,44H255.2Zm46.4,106.85-37.84-85-38.07,85Z"/><path class="cls-3" d="M434.38,145.8h62.34c37.6,0,62.35,20,62.35,52.83v.47c0,35.93-30,54.49-65.44,54.49H453.18v58.78h-18.8Zm60,90.66c27.6,0,45.69-14.75,45.69-36.65v-.47c0-23.8-17.85-36.17-44.74-36.17H453.18v73.29Z"/><path class="cls-3" d="M568.83,229.56v-.48c0-45.69,33.55-86.14,83.53-86.14,28.08,0,45.45,8.09,62.11,22.13l-12.14,14.28c-12.85-11.18-27.13-19-50.68-19-36.89,0-63.3,31.17-63.3,68.3v.47c0,39.74,25.46,69.25,65.92,69.25,19,0,36.64-7.37,48.07-16.65V240.27H651.64V223.38h68.77v66.39a100.93,100.93,0,0,1-66.87,25.46C601.19,315.23,568.83,277.15,568.83,229.56Z"/><path class="cls-2" d="M840.1,284.06c-15.23,19-34,30.7-56.4,30.7-29.27,0-49.26-20-49.26-43.07v-.48c0-28.08,22.85-40.45,45.93-51.16-16.66-17.37-22.37-30-22.37-42.12v-.48c0-16.18,13.33-34.5,37.84-34.5,22.61,0,36.88,16.66,36.88,33.55V177c0,17.37-10.95,29.74-44.26,44.5l51.4,55.45c9-12.85,16.18-27.37,23.32-46.64l4.52,1.43c-6.9,18.8-15,35.22-24.75,48.54l29,31.41-3.57,3.09ZM837,280.72l-53.06-57.11c-22.37,10.23-44.26,21.18-44.26,47.59v.48c0,20.23,17.37,38.31,44,38.31C804.65,310,823,298.57,837,280.72ZM827.73,177v-.48c0-14.28-12.14-29-31.89-29-20.7,0-32.84,15.47-32.84,29.75v.48c0,11.18,5.24,23.32,22.13,40.45C817.74,203.86,827.73,192.92,827.73,177Z"/><path class="cls-3" d="M883.4,145.8h120.41v17.13H902.2v56.88h90.9v17.13H902.2v58.3H1005v17.14H883.4Z"/></svg>