<svg xmlns="http://www.w3.org/2000/svg" viewBox="0 0 360.01 119.88" xmlns:v="https://vecta.io/nano"><defs><linearGradient id="A" x1="18" y1="59.94" x2="111.19" y2="59.94" gradientUnits="userSpaceOnUse"><stop offset=".25" stop-color="#288646"/><stop offset="1" stop-color="#a9c82c"/></linearGradient><path id="B" d="M148.09 36.35c-.24 0-.55-.32-.55-.55v-3.4c0-.24.32-.55.55-.55h22.42c.24 0 .55.32.55.55v3.4c0 .24-.32.55-.55.55h-8.53v18.71a.51.51 0 0 1-.47.47h-4.42a.51.51 0 0 1-.47-.47V36.35h-8.53z"/></defs><path d="M63.49 71.37c-.06-.08-.14-.1-.22-.1-.1 0-.2.04-.26.14l-4.74 8.39c-.06.1-.16.16-.26.16-.06 0-.14-.04-.2-.1l-9.49-9.77-5.31-5.47L21.42 42.4c-2.23 5.41-3.43 11.33-3.43 17.54 0 25.73 20.86 46.59 46.59 46.59a46.18 46.18 0 0 0 22.75-5.94L63.47 71.36zm-22.1 15.71h-7.7l7.68-18.49 5.33 5.49-5.31 13zM64.6 13.35c-12.27 0-23.44 4.74-31.75 12.53L48.78 50.8l4.54 7.08 3.39 5.31c.06.08.16.12.24.12s.18-.04.22-.1l7.26-9.26s.06-.06.1-.08c.08-.04.18-.04.26.02.04 0 .08.04.12.1L89.52 99.3c13.04-8.25 21.69-22.79 21.69-39.37 0-25.73-20.86-46.59-46.59-46.59zm22.71 73.73l-.18-.36-22.71-56.06-9.29 22.75-4.5-7.05 10.38-24.98h7.05l27.29 65.69h-8.03z" fill="url(#A)"/><g fill="#fff"><path d="M87.31 87.07h-.04l-.14-.35.18.35z"/><path d="m87.13,86.72l.14.36h.04l-.18-.36Z"/></g><g fill="#288646"><path d="M140.13 51.43H128.6l-1.7 3.59c-.24.47-.36.51-.83.51h-4.7c-.24 0-.32-.16-.32-.28s.08-.32.16-.47l11.13-22.94h4.11l11.13 22.94c.08.16.16.35.16.47s-.08.28-.32.28h-4.7c-.47 0-.59-.04-.83-.51l-1.78-3.59zm-9.63-4.19h7.82l-2.13-4.38c-.83-1.7-1.66-4.22-1.66-4.22h-.24s-.83 2.53-1.66 4.22l-2.13 4.38z"/><use href="#B"/><path d="M182.59 51.03h11.69c.24 0 .55.32.55.55v3.39c0 .24-.31.55-.55.55H177.7a.51.51 0 0 1-.47-.47V32.31a.51.51 0 0 1 .47-.47h4.42a.51.51 0 0 1 .47.47v18.71zm35.44.4H206.5l-1.7 3.59c-.24.47-.36.51-.83.51h-4.7c-.24 0-.32-.16-.32-.28s.08-.32.16-.47l11.13-22.94h4.11l11.13 22.94c.08.16.16.35.16.47s-.08.28-.32.28h-4.7c-.47 0-.59-.04-.83-.51l-1.78-3.59zm-9.63-4.19h7.82l-2.13-4.38c-.83-1.7-1.66-4.22-1.66-4.22h-.24s-.83 2.53-1.66 4.22l-2.13 4.38zm43.66 8.29l-12.08-12.32c-1.26-1.26-2.68-3.04-2.68-3.04h-.12v14.88a.51.51 0 0 1-.47.47h-4.42a.51.51 0 0 1-.47-.47V32.31a.51.51 0 0 1 .47-.47h3.63L247.88 44c1.3 1.3 2.76 3.2 2.76 3.2h.16V32.32a.51.51 0 0 1 .47-.47h4.42a.51.51 0 0 1 .47.47v22.74a.51.51 0 0 1-.47.47h-3.63z"/><use href="#B" x="114.78"/><path d="M297.36 45.67v5.37h13.9c.24 0 .55.32.55.55v3.39c0 .24-.32.55-.55.55h-18.79a.51.51 0 0 1-.47-.47V32.32a.51.51 0 0 1 .47-.47h18.55c.24 0 .55.32.55.55v3.4c0 .24-.32.55-.55.55h-13.66v4.82h12.47c.24 0 .55.32.55.55v3.4c0 .24-.32.55-.55.55h-12.47zm35.37-2.06l9.12 11.37c.12.16.16.24.16.32a.23.23 0 0 1-.24.24h-5.6c-.51 0-.59-.04-.95-.47l-6.2-7.7h-.08l-2.41 3.31-3.43 4.38c-.35.47-.47.47-.95.47h-5.29a.23.23 0 0 1-.24-.24c0-.08.04-.16.16-.32l9.04-11.68-8.69-10.9c-.12-.16-.16-.24-.16-.32a.23.23 0 0 1 .24-.24h5.53c.51 0 .67.04 1.07.55l5.8 7.22h.08l1.66-2.37 3.79-4.86c.35-.43.59-.55.95-.55h5.33a.23.23 0 0 1 .24.24c0 .12-.04.2-.16.36l-8.76 11.17z"/></g><path d="M160.15 91.67a.51.51 0 0 1-.47-.47V68.46a.51.51 0 0 1 .47-.47h9.71c5.57 0 9.63 3.2 9.63 8.57s-4.11 8.53-9.63 8.53h-6.71v6.12a.51.51 0 0 1-.47.47h-2.53zm3-20.69v11.09h6.63c3.63 0 6.24-2.09 6.24-5.53s-2.57-5.57-6.24-5.57h-6.63zm48.04 8.85c0 7.66-5.72 12.24-12.79 12.24s-12.79-4.58-12.79-12.24 5.76-12.24 12.79-12.24 12.79 4.58 12.79 12.24zm-22.11 0c0 5.76 4.22 9.24 9.32 9.24s9.32-3.48 9.32-9.24-4.1-9.24-9.32-9.24-9.32 3.4-9.32 9.24zm54.51 11.84h-1.11l-7.03-16.19c-.16-.39-.28-.87-.28-.87h-.08s-.12.47-.28.87l-7.03 16.19h-1.11l-11.21-22.98c-.08-.16-.16-.35-.16-.47s.08-.24.32-.24h2.76c.47 0 .55-.04.79.47l6.67 13.7c.59 1.23 1.22 3.43 1.22 3.43h.16s.51-1.82 1.07-3.08l6.28-14.53h1.11l6.28 14.53c.55 1.26 1.07 3.08 1.07 3.08h.16s.63-2.21 1.22-3.43l6.67-13.7c.24-.51.32-.47.79-.47h2.76c.24 0 .32.12.32.24s-.08.32-.16.47l-11.21 22.98zm21.59-10.74v7.74h15c.24 0 .55.32.55.56v1.89c0 .24-.32.56-.55.56h-18a.51.51 0 0 1-.47-.47V68.47a.51.51 0 0 1 .47-.47h17.61c.24 0 .55.32.55.56v1.89c0 .24-.32.56-.55.56h-14.61v6.95h13.42c.24 0 .55.32.55.56v1.89c0 .24-.32.56-.55.56h-13.42zm23.48-12.47a.51.51 0 0 1 .47-.47h10.11c5.57 0 9.63 2.76 9.63 7.78 0 3.83-2.45 6.24-6.08 7.15V83a11.63 11.63 0 0 0 1.5 1.7l4.5 6.24c.24.32.28.44.28.51 0 .16-.08.24-.32.24h-3.24c-.2 0-.43-.12-.55-.28l-5.84-8.09h-6.99v7.9a.51.51 0 0 1-.47.47h-2.53a.51.51 0 0 1-.47-.47V68.48zm3.47 2.53v9.51h7.03c3.63 0 6.24-1.66 6.24-4.74s-2.57-4.78-6.24-4.78h-7.03z" fill="#a9c82c"/></svg>