<svg xmlns="http://www.w3.org/2000/svg" xml:space="preserve" id="_2_copy" x="0" y="0" version="1.1" viewBox="0 0 600 300"><style>.st0{fill:#6d6e70}</style><path d="M101.8 276.2v-53h35.4v9.6h-24v12.1h19v9.6h-19v12.2h24v9.5zm100.4 0-19.4-29.9v29.9h-11.4v-53h7.9l21.9 31.8v-31.8h11.4v53zm46 0v-53h35.5v9.6h-24.1v12.1h19.1v9.6h-19.1v12.2h24.1v9.5zm107.2 1.1c-15.6 0-14-21.6-26.2-19.6v18.5h-11.4v-53.1h18.1c23.2-2.7 28.1 26.1 10.6 32.5 3.3 7.1 9.4 17.3 19 13.6-.8 4.9-5.3 8.3-10.1 8.1m-26.2-28.1c6.6.3 18.2.5 17.5-8.2.6-8.3-10.8-8.7-17.6-8.2l.1 16.4zm80.9 27.7c-14.4 0-20.3-7.8-20.3-26.8 0-19.1 6.3-27.4 20.3-27.4 12.9 0 18.2 7.2 19.1 18.4l-10.4 2.4c-1.3-17-19.7-14.1-17.5 6.6 0 10.4 1.5 16.9 8.8 16.9 7.1.3 9.3-4.3 8.8-10.6h-8.4v-6.7h18.7c1 14.6-1.2 27.8-19.1 27.2m61.8-.7v-18.9l-15.2-34.1h12.5l8.9 22.8 9-22.8h11.5l-15.3 34v19z" class="st0"/><path d="M233 55.7c25.6-.4 25.6-38.5 0-38.9-25.6.4-25.6 38.5 0 38.9m298.4 14.4c-42.3-13.6-92.8 11.5-107.2 76.7-.4 16-17.9 56-36.9 32.8-11.4-18.1 3.9-43 12.5-56.2 11.7-15.8 4.1-18.6-4.1-23.4-8.3-4.8-17.5-13.1-17.5-13.1-12-11.9-10.4-22.4-20.4-19.8-14.3 5.4-7.8 37.6-14.9 57.4-5.7 29.5-29.6 77.5-50.7 54.7-10.2-13.4 2.3-43.2 11.9-56.1 11.7-15.8 4.1-18.6-4.1-23.4-28.7-15.5-26.3-36.5-37.9-32.9-10 2.6-10 24.3-10 24.3.3 17.2-13.8 93-45.1 95s-6.2-59.2 10-85.1 3.4-32.4 3.4-32.4c-20.7-14.4-49.1 36.1-52.8 75.5v-.1c2-.3-11.3 37.7-49.3 40.6-12.4 2.1-23.1-1.3-25.7-3.1-40.7-22 5.2-111.6 33.1-103.2 7.6 4.7-15.2 22.6-11.6 33.7 1 10 10.1 17.2 20.1 15.8 26.1-4.4 27.5-65-11-62-42.7 0-86.8 42.3-86.8 79.5 8.8 73.2 105.6 62.6 131.4 18.8 0 11.2 8.2 30.7 23.5 33.2 38.8 11.3 79.6-72.9 79.5-93.1 4 2.7 8.3 5.1 12.8 6.9-63.2 105.4 56 126.3 83-6.8 1.7 1.3 5 3.8 12.7 7.3-6.3 5.2-37.1 67.9-.2 84.2 15.5 8.1 39.6-6.6 50.8-23.1 9.8 17.5 30.4 27.7 50.2 27.5 72.7 2.1 100.2-102.7 51.3-130.1m-15.8 70.7c-32.6 71.1-74.9 52.1-43.2-19.5 28.2-64.5 76.2-60.8 43.2 19.5" style="fill:#00bff2"/><path d="m513.9 225.5-.2.2c-.7.2-1.3-.7-2-.8-1.9-.8-4.7.9-3.5 3 1.4 1.6 3.9 1.3 5.4 2.7 4.2 5.1-4.6 9.5-8 5 .3-.4.6-1.5 1.3-1.1 1.7 1.8 6 2 6.1-1.2-.1-2.2-3.1-2.2-4.6-3-6.1-3.5 2-10.3 6.1-5.7l-.6.9zm18-2.2v14h-1.7v-11.2c-6.8 12.2-4.5 12-11.3 0 .1.2 0 10.8.1 11.3h-1.7v-14c.5.1 1.8-.3 2 .3.2.4 5.4 9.5 5.3 9.6-.1-.2 5-9.2 5.2-9.6.4-.6 1.7-.2 2.1-.4z" class="st0"/></svg>