<svg xmlns="http://www.w3.org/2000/svg" id="DE_Logo" data-name="DE Logo" viewBox="0 0 491.69 239.05"><defs><linearGradient id="linear-gradient" x1="456.04" x2="525.73" y1="115.95" y2="115.95" gradientUnits="userSpaceOnUse"><stop offset="0" stop-color="#f36f24"/><stop offset=".13" stop-color="#f47729"/><stop offset=".34" stop-color="#f78c35"/><stop offset=".51" stop-color="#faa342"/><stop offset=".7" stop-color="#fbb546"/><stop offset="1" stop-color="#fedc4e"/></linearGradient><style>.cls-1{fill:#f36f24}</style></defs><path d="M157.52 144.38a24.72 24.72 0 0 0-9.58-10.4 28 28 0 0 0-14.61-3.71 30.75 30.75 0 0 0-16.71 4.44 26.3 26.3 0 0 0-8.14 8.19.63.63 0 0 1-1.16-.34v-10.78a.64.64 0 0 0-.63-.64H86.42a.64.64 0 0 0-.63.64v76.82a.63.63 0 0 0 .63.63h20.31a.63.63 0 0 0 .63-.63v-37.9q0-8.87 4.62-14.69a15.58 15.58 0 0 1 12.58-6q6.86 0 10.84 4.36t4 12.07v42.12a.63.63 0 0 0 .63.63h20.27a.63.63 0 0 0 .63-.63v-48.33a35.05 35.05 0 0 0-3.41-15.85Zm85.07 7.78a32.51 32.51 0 0 0-12.3-16.14q-8.46-5.75-21.74-5.75a41.54 41.54 0 0 0-20.21 5.09 34.9 34.9 0 0 0-13.61 13.89q-4.89 8.94-4.89 21a42.93 42.93 0 0 0 4.82 20.72 34.2 34.2 0 0 0 13.63 13.89q8.82 4.95 20.84 4.95a46.51 46.51 0 0 0 18.38-3.49 37 37 0 0 0 13.39-9.59.64.64 0 0 0 0-.87l-10.51-10.74a.63.63 0 0 0-.9 0 25.46 25.46 0 0 1-18.57 8 19.39 19.39 0 0 1-10.62-2.91 19 19 0 0 1-7.13-8.28 23.7 23.7 0 0 1-1.51-4.3.63.63 0 0 1 .62-.79h52.58a.65.65 0 0 0 .64-.61q.86-13.89-2.91-24.07Zm-50.77 11.56a.64.64 0 0 1-.63-.75 24.5 24.5 0 0 1 1.7-5.79 18.88 18.88 0 0 1 6.29-8 15.87 15.87 0 0 1 9.51-2.91 17.07 17.07 0 0 1 8.67 2.18 14.83 14.83 0 0 1 5.8 6 20.46 20.46 0 0 1 2.14 8.56.65.65 0 0 1-.64.68ZM72.78 152.16a32.51 32.51 0 0 0-12.3-16.14q-8.46-5.75-21.75-5.75a41.5 41.5 0 0 0-20.2 5.09A34.83 34.83 0 0 0 4.9 149.25q-4.91 8.94-4.9 21a42.93 42.93 0 0 0 4.83 20.72 34.14 34.14 0 0 0 13.63 13.89q8.8 4.95 20.83 4.95a46.53 46.53 0 0 0 18.44-3.48 37.06 37.06 0 0 0 13.38-9.59.65.65 0 0 0 0-.87l-10.54-10.75a.61.61 0 0 0-.89 0 25.46 25.46 0 0 1-18.57 8 19.43 19.43 0 0 1-10.63-2.91 19.07 19.07 0 0 1-7.13-8.28 24.49 24.49 0 0 1-1.51-4.3.64.64 0 0 1 .62-.79h52.59a.65.65 0 0 0 .64-.61q.86-13.89-2.91-24.07ZM22 163.72a.65.65 0 0 1-.63-.75 25.48 25.48 0 0 1 1.7-5.79 18.9 18.9 0 0 1 6.3-8 15.86 15.86 0 0 1 9.5-2.91 17 17 0 0 1 8.67 2.18 14.86 14.86 0 0 1 5.81 6 20.46 20.46 0 0 1 2.14 8.56.65.65 0 0 1-.64.68Zm265.22-28.65a28.11 28.11 0 0 0-7.65 8.16.63.63 0 0 1-1.16-.33v-11.12a.64.64 0 0 0-.63-.64h-20.27a.64.64 0 0 0-.63.64v76.82a.63.63 0 0 0 .63.63h20.27a.63.63 0 0 0 .63-.63v-36.88a22.17 22.17 0 0 1 3-11.78 19.24 19.24 0 0 1 8.67-7.56 24.78 24.78 0 0 1 12.52-2 .64.64 0 0 0 .69-.62v-18.84a.64.64 0 0 0-.65-.64 27.09 27.09 0 0 0-15.42 4.79Zm76.25-2.71v8a.62.62 0 0 1-1.11.39 26.29 26.29 0 0 0-5.88-5.42q-6.71-4.5-16.22-4.36a30.41 30.41 0 0 0-16.84 4.73 31.66 31.66 0 0 0-11.4 12.94q-4.07 8.22-4.06 19.41a44 44 0 0 0 4.2 19.71 32.36 32.36 0 0 0 11.57 13.26 31 31 0 0 0 17.13 4.72q9.38 0 15.94-4.5a25.78 25.78 0 0 0 5.6-5.25.63.63 0 0 1 1.11.4v6.74a18.7 18.7 0 0 1-2.44 9.67 16.44 16.44 0 0 1-7 6.4 23.86 23.86 0 0 1-10.7 2.25 36 36 0 0 1-12.3-2.11 43.59 43.59 0 0 1-10.47-5.47.62.62 0 0 0-.91.21l-7.37 14a.65.65 0 0 0 .2.83 61.52 61.52 0 0 0 14.42 7 54.93 54.93 0 0 0 17.79 2.84q12.17 0 21.11-4.43a33.52 33.52 0 0 0 14-12.58 35.74 35.74 0 0 0 5-19.19v-70.19a.63.63 0 0 0-.63-.63h-20.1a.64.64 0 0 0-.64.63Zm-2.23 47.16a17.5 17.5 0 0 1-6.22 7.34 16.3 16.3 0 0 1-9.16 2.62 16.51 16.51 0 0 1-9.3-2.62 16.94 16.94 0 0 1-6.15-7.34 27.15 27.15 0 0 1-2.31-10.84 27.54 27.54 0 0 1 2.31-11 16.49 16.49 0 0 1 15.45-10 16.38 16.38 0 0 1 9.16 2.62 17.56 17.56 0 0 1 6.22 7.34 25.48 25.48 0 0 1 2.23 11 25.09 25.09 0 0 1-2.23 10.88Zm92.83-47.36-17 52.49a.64.64 0 0 1-1.2 0l-18.93-52.53a.64.64 0 0 0-.6-.41h-20.9a.63.63 0 0 0-.58.87l30.72 75.36a.62.62 0 0 1 0 .5l-2 4.41a12.56 12.56 0 0 1-4.06 5.45 9.77 9.77 0 0 1-5.87 1.82 14.9 14.9 0 0 1-9.22-3.61.63.63 0 0 0-.94.17l-8.44 14.45a.66.66 0 0 0 .15.83 33.07 33.07 0 0 0 9.15 5.25 31.33 31.33 0 0 0 10.84 1.81q9.78 0 16.64-5.08t10.9-15.11l32.68-86.25a.63.63 0 0 0-.6-.85h-20.14a.62.62 0 0 0-.6.43Zm-62.65-40.12a.64.64 0 0 0-.89-.39 32.84 32.84 0 0 1-4.8 1.87 16.59 16.59 0 0 1-4.62.73 6.49 6.49 0 0 1-5.31-2c-1.31-1.4-2-3.85-2-7V64.52h12.53a.63.63 0 0 0 .63-.63v-16.7a.64.64 0 0 0-.63-.64h-12.46V17.52c0-.73-.28-1-.63-1h-20.13a.63.63 0 0 0-.63.63v71.37q0 8 3.08 13.38a19.24 19.24 0 0 0 8.45 8 27.27 27.27 0 0 0 12.1 2.62 37.13 37.13 0 0 0 10.35-1.46 36.67 36.67 0 0 0 8.81-3.81.64.64 0 0 0 .28-.73ZM61.35 6.71v34.15a.63.63 0 0 1-1.12.39 29.7 29.7 0 0 0-6.5-6.27q-7.23-5-17.51-5a34.36 34.36 0 0 0-19 5.19A35.29 35.29 0 0 0 4.56 49.52 47.45 47.45 0 0 0 0 70.89a49.6 49.6 0 0 0 4.56 21.89 34.46 34.46 0 0 0 12.88 14.6 35.7 35.7 0 0 0 19.29 5.14 28 28 0 0 0 23.47-11.16.63.63 0 0 1 1.13.38v10.18a.63.63 0 0 0 .63.63h20.87a.64.64 0 0 0 .64-.63V6.71a.64.64 0 0 0-.64-.64H61.98a.64.64 0 0 0-.63.64Zm-2.46 76.72a19.62 19.62 0 0 1-6.87 8.13 17.83 17.83 0 0 1-10.06 2.96 18 18 0 0 1-10.23-3 19.62 19.62 0 0 1-6.87-8.13 28.78 28.78 0 0 1-2.61-11.81 29.74 29.74 0 0 1 2.61-12 19.51 19.51 0 0 1 6.87-8.2 18 18 0 0 1 10.2-2.93 17.83 17.83 0 0 1 10.06 2.93 19.62 19.62 0 0 1 6.87 8.13 28 28 0 0 1 2.46 12.11 27.23 27.23 0 0 1-2.43 11.81ZM108.95 0a11.09 11.09 0 0 1 8.46 3.52 12.21 12.21 0 0 1 3.32 8.69 12.25 12.25 0 0 1-3.28 8.73 11.74 11.74 0 0 1-16.71 0 13 13 0 0 1-.01-17.42A11 11 0 0 1 108.95 0ZM98.82 34.46h20.26a.64.64 0 0 1 .64.63v76.83a.64.64 0 0 1-.64.63H98.82a.64.64 0 0 1-.64-.63V35.09a.64.64 0 0 1 .64-.63Zm66.07 3.93a28 28 0 0 0-7.64 8.15.63.63 0 0 1-1.17-.33V35.09a.63.63 0 0 0-.63-.63h-20.27a.63.63 0 0 0-.63.63v76.83a.63.63 0 0 0 .63.63h20.27a.63.63 0 0 0 .63-.63V75.03a22.31 22.31 0 0 1 3-11.78 19.41 19.41 0 0 1 8.67-7.56 25 25 0 0 1 12.53-2 .62.62 0 0 0 .68-.62V34.23a.65.65 0 0 0-.65-.64 27.12 27.12 0 0 0-15.42 4.8Zm93.5 16.5a32.51 32.51 0 0 0-12.3-16.14q-8.46-5.74-21.74-5.74a41.32 41.32 0 0 0-20.21 5.09 34.75 34.75 0 0 0-13.63 13.88q-4.91 8.94-4.9 21a42.93 42.93 0 0 0 4.83 20.72 34.18 34.18 0 0 0 13.63 13.88q8.8 4.95 20.84 4.95a46.33 46.33 0 0 0 18.38-3.49 36.89 36.89 0 0 0 13.44-9.52.65.65 0 0 0 0-.87L246.26 87.9a.62.62 0 0 0-.89 0 25.43 25.43 0 0 1-18.57 8 19.45 19.45 0 0 1-10.62-2.91 19 19 0 0 1-7.13-8.29 23.72 23.72 0 0 1-1.52-4.3.64.64 0 0 1 .62-.79h52.59a.64.64 0 0 0 .64-.6q.77-13.95-2.99-24.12Zm-50.77 11.56a.64.64 0 0 1-.63-.75 24.64 24.64 0 0 1 1.7-5.79 18.94 18.94 0 0 1 6.29-8 15.87 15.87 0 0 1 9.51-2.91 17 17 0 0 1 8.66 2.18 14.82 14.82 0 0 1 5.81 6 20.42 20.42 0 0 1 2.14 8.56.64.64 0 0 1-.64.67Zm121.11-7.2a.62.62 0 0 1-.87-.12 20.42 20.42 0 0 0-6.9-5.62 21.84 21.84 0 0 0-9.92-2.18 16.33 16.33 0 0 0-9.23 2.69 18 18 0 0 0-6.36 7.56 29.19 29.19 0 0 0 0 22.76 18 18 0 0 0 6.36 7.63 16.26 16.26 0 0 0 9.23 2.69 22.38 22.38 0 0 0 10.2-2.25 17.88 17.88 0 0 0 6.93-6.22.62.62 0 0 1 .87-.18l13.8 9.47a.65.65 0 0 1 .18.87 32.08 32.08 0 0 1-13 11.84 43.55 43.55 0 0 1-19.99 4.33 39.9 39.9 0 0 1-20.14-4.95 34.47 34.47 0 0 1-13.49-13.88 42.93 42.93 0 0 1-4.82-20.72 43.67 43.67 0 0 1 4.82-20.94 34.85 34.85 0 0 1 13.56-14 39.65 39.65 0 0 1 20.07-5 43 43 0 0 1 19.29 4.14 33.81 33.81 0 0 1 13.08 11.19.64.64 0 0 1-.15.88Z" class="cls-1"/><path d="m475.24 54.76-23.67-37.65a1.3 1.3 0 0 0-1.07-.57h-19.86a1.28 1.28 0 0 0-1.06 2l18.62 27.92h-41.16a1.28 1.28 0 0 0-1.27 1.28v15.47a1.27 1.27 0 0 0 1.27 1.28h41.16l-18.62 27.92a1.28 1.28 0 0 0 1.06 2h19.86a1.28 1.28 0 0 0 1.07-.57l23.67-37.65a1.25 1.25 0 0 0 0-1.43Z" style="fill:url(#linear-gradient)"/><path d="M461.98 196.04v-2.27h11.89v2.27h-4.61v12.64h-2.68v-12.64Zm14.07-2.27h3.31l4.43 10.81h.17l4.43-10.81h3.34v14.91h-2.59v-10.24H489l-4.12 10.2h-1.94l-4.12-10.22h-.13v10.26h-2.6Z" class="cls-1"/></svg>