<svg xmlns="http://www.w3.org/2000/svg" xml:space="preserve" viewBox="0 0 600 300"><path d="M185.6 177.6c2.1-24.8-42.4-15.7-41.8-33.6 1-15.7 25.6-12.7 34.8-3.4l5.1-6.7c-13.8-13.8-48.7-12.1-48.5 10.8-2 25.1 41.9 15.3 41.7 33.5-1.8 17.8-29.3 12.9-39.2 1.7l-5.4 6.4c14.4 16 52.8 16.8 53.3-8.7zM88 136.5c-10.5-13.3-31.7-10.7-46.6-10.8v71.4c9.4-.4 26.8 1.6 35.4-2.8 21.9-9.2 27.2-40.8 11.2-57.8zm-1 35.4c-5.9 16.7-21.8 17.7-37.2 16.8v-54.3h12.9c19.6-1 30.9 20.6 24.3 37.5zm23.5-46.2h8.5v71.4h-8.5zm120.4 72.1c11.5.1 22.6-5.8 29.3-15.1l-6.7-5.2c-11 16.3-37.2 15.3-46.5-2.2-16.6-29.4 24-58.1 45.5-31.3l6.5-5.8c-15.1-19.5-47.6-17-59.3 4.8-14.2 23 4.1 55.6 31.2 54.8zm90.4-67.9c-41.9-23.1-77.3 38.6-36.2 63.1 41.7 23.2 76.8-38.4 36.2-63.1zm5.7 45.5c-18.8 31.4-65.4 3.8-47.7-27.9 19-31.5 65.2-3.9 47.7 27.9zm76.9 5.1c3.8-6.9 1.4-46.7 2.1-54.8h-8.5c-.5 5.7 1.4 47.3-1.5 51.6-3.7 9.6-15.6 14.6-25 10.5-7.2-2.9-12-10.4-11.8-18.1v-44h-8.5c1.8 14.7-5.6 53 8 63.7 13 14.4 38.5 9.1 45.2-8.9zm64.1-2.4-46.7-54.9v73.9h8.4v-51l46.8 55.2v-75.6H468zm19.3-52.4v8.6h26.8v62.8h8.6v-62.8h26.7v-8.6zM191.1 221c-5.7-3.6-22.3-1.7-28.8-2.1 0 1 .1 53.8.1 54.8h5.2v-23.1c6.1-.3 18 1.2 23.5-2.1 11.8-5.3 11.9-22.4 0-27.5zm2.2 18.9c-4.8 7.6-18.3 4.8-25.6 5.3l-.1-21h14.6c7.9-.6 16.6 8.1 11.1 15.7zm56.1-17.9c-32.1-17.8-59 29.5-27.8 48.4 32 17.8 59-29.5 27.8-48.4zm5.5 35.6c-15.3 25.6-53.3 3.1-38.9-22.8 15.5-25.5 53.2-3.1 38.9 22.8zm59.7 2.4-14.7-38.3-14.9 38.5-12.9-41.4h-5.4l17.8 57.3 15.4-39.9 15.2 39.9 17.8-57.3h-5.6zm28 13.6h36.1v-5.4h-30.9v-19.3h24v-5.3h-24v-19.5h30.9v-5.3h-36.1zm71.6-23.6c16.9-1.7 20.2-24.6 3.6-29.9-4.9-2.2-21.3-.9-26.7-1.2v54.8h5.2V224c5 .4 16.7-1.1 21.2 1.6 8.2 3.4 8 14.8-.2 18.1-5.1 2.1-12.3 1.4-17.7 1.5.3.4 23.1 28 23.4 28.4h6.9l-19.3-23.4c1.3 0 2.5-.1 3.6-.2z" style="fill:#004d99"/><path d="M251.2 116.8c.3-65 99-65 99.4-.1-.1.9 54.8-9.8 54.8-9.7l-51.6-4.9 14.7-12.8-21.3-1.7L382 49.8l-45.1 26 8.1-21.6-21.4 13 6.7-51.1-22 46.7-7.9-22.6-7.9 22.6-22-46.8 6.8 51.1-21.5-13 8.1 21.6-43.7-26 33.3 37.9-21.3 1.7 14.7 12.8-51.6 4.9s55.9 10.4 55.9 9.8z" style="fill:#ffa300"/></svg>