<svg xmlns="http://www.w3.org/2000/svg" xmlns:xlink="http://www.w3.org/1999/xlink" xml:space="preserve" id="_2_copy" x="0" y="0" version="1.1" viewBox="0 0 600 300"><style>.st2{fill:#f58220}.st3{fill:#231f20}</style><path d="M147.8 145.4V109H53.2v36.4h94.6z" style="fill:#faa61b"/><path d="M53.2 79.8V43.3c-20.1 0-36.4 16.3-36.4 36.4h36.4z" style="fill:#59595b"/><path d="M16.8 79.8h36.4v94.5H16.8z" class="st2"/><path d="M53.2 43.3h94.6v36.5H53.2zm133.3-.3h40.1v7.3H195v10.1h27.2v7.3H195v18.9h-8.5zm71.6 19.3c14.2 1.6 14.2-13.9 0-12.3h-16.4v12.3h16.4zm-25-19.3c12.1 1.8 44.7-6.8 43.9 13 0 8-5.7 12.5-12.2 12.8l13.4 17.8h-10.5l-12.6-17.2h-13.5v17.2h-8.5V43z" class="st3"/><path d="M327 64.6c1.1-20.7-36-20.7-34.9 0-.6 21.4 35.5 21.4 34.9 0zm-17.5-22.7c33.9-.9 36.5 45.4 0 45.8-36.4-.5-33.9-46.7 0-45.8z" class="st3"/><path d="M343 43h9l29.1 31.5V43h8.1v43.6h-7.8l-30.3-32.7v32.7H343zm72 7.3h-19.4V43H443v7.3h-19.5v36.3H415zm34.9-7.3h8.5v43.6h-8.5zm19.4 0h39v7.3h-30.5v10.1h26.3v7.3h-26.3v11.6H509v7.3h-39.7zm71.5 19.3c14.3 1.6 14.2-13.9 0-12.3h-16.4v12.3h16.4zM515.9 43c12.1 1.8 44.7-6.8 43.9 13 0 8-5.8 12.5-12.2 12.8L561 86.6h-10.5l-12.6-17.2h-13.5v17.2h-8.5V43zm-283.1 93.8c2.4 26.8-48.6 26.8-46.2 0v-24.9h8.5v24.3c0 7.2 2.6 13.1 14.6 13.1s14.6-5.9 14.6-13.1v-24.3h8.5v24.9zm25.8-17.6h-19.5v-7.3h47.5v7.3h-19.5v36.3h-8.5zm34.9-7.3h8.5v43.6h-8.5zm19.3 0h8.5V148h31.6v7.5h-40.1zm47.2 0h8.5v43.6H360zm34.9 7.3h-19.5v-7.3h47.4v7.3h-19.4v36.3h-8.5zm34.8-7.3h8.5v43.6h-8.5zm19.4 0h39v7.3h-30.5v10.2h26.3v7.3h-26.3v11.5h31.3v7.3h-39.8z" class="st3"/><defs><path id="SVGID_1_" d="M16.8 41.9H580v218.2H16.8z"/></defs><clipPath id="SVGID_2_"><use xlink:href="#SVGID_1_" overflow="visible"/></clipPath><path d="M529.6 125.2c0-7.3-25.1-11.4-26.8-1.8 0 1.9 1.1 3.8 9.8 4.9 9.6 1.2 26.9 3 25.8 14.2-.9 22.7-45.3 14.5-45.7 1.6l8.2-2.6c7.4 17 47.4 2 19.5-3.7-9.8-.9-27-3.1-26.1-13.9 1-20.7 42.5-14.1 43.4-1.4-.1 0-8 2.7-8.1 2.7z" style="clip-path:url(#SVGID_2_);fill:#231f20"/><path d="m560.7 199.9 14.6.1s2.6.3 3.1 2.6c1.5 5.2-18.3 1.3-18.3 2-1.2 3.2-.5 9.8-5.9 8.3l-4.3-4.1c-5.2.1-11.1-.7-14.4-5.3l-1.5 3.2c-.9.5-1.9.7-2.9.5-1.3.1-5.3-4.3-5.7-4.4-1.2.3-2.6.1-3.4-.9-1.1 1.2-2.5.3-3.4-.6.1.6-3.1.9-3.6-.2-1 .6-2.2.3-2.9-.6-3.3 1.9-5.9-2.9-5.1-5.8l1.8-5.5c0-.8 1.5-2.6 2.9-2l.3.6.4-.1.3-.4c.8-.1 3-.8 2.7.3 1-.5 2-1.2 3.1-1l.2.5.8-.1c.6-.8 1.9-1.3 2.5-.4 0 .2.8 0 .8 0l.2-.6c.8.2 1.8-.3 2.5.4l.1.3 1.4-.6c1.8-3.3.8-4.7 5.2-4.5l3.5 4.1c1.5-5 12.2-4.8 16-5 .1-1.8.1-3.3 2.4-3.7 3.1-2.8 7.8 8.1 7.9 8 2.8.6 16.3-1.7 17.5 2.1.5 1.8.3 2.8-3 2.8h-14.1l-1.7 10z" style="fill:#f58220;clip-path:url(#SVGID_2_)"/><path d="M16.8 190.1h535v9h-535z" class="st2"/><path d="M16.9 213.6h33v4H21.4v11.8h23.8v4H21.4v13.3h29.1v4H16.9zm38.4 0h4.1v37.1h-4.1zm35.2 21.1c-.9-10.1-20.3-10.9-21.5 0h21.5zm3.7 10.4c-6.4 10.2-30.2 8.2-29.5-7.9-.4-18.7 31.4-18.9 30.3 1H68.8c.2 11.2 18.1 12.6 22.2 4.6l3.2 2.3zm30-12.6c-3.1-8.1-21.9-8.6-21.5 5.2-.1 10.9 17 14.6 22.3 4.2l3.6 2c-5.7 12.3-30.9 9.3-30-6.6-.8-16.4 24.1-18 29.2-6.8l-3.6 2zm27.7-5h-10.6v16.1c-.7 5.5 7.4 4.6 11.3 3.5v3.6c-21.5 4.6-14.2-10.8-15.4-23.2h-5.7V224h5.7v-8.9h4.1v8.9h10.6v3.5zm5.5-3.5h4.1v5.6c2.5-3.3 7.8-7.6 13.5-6.2v4.1c-5.7-2.6-13.7 5.5-13.5 7.2v16h-4.1V224zm22.4 0h4.2v26.7h-4.1l-.1-26.7zm4.4-10.4v4.7h-4.7v-4.7h4.7zm30.6 18.9c-3.1-8.1-21.9-8.6-21.5 5.2-.1 10.9 17 14.6 22.4 4.2l3.6 2c-5.7 12.3-30.9 9.3-30-6.6-.8-16.4 24.1-18 29.2-6.8l-3.7 2zm10.4-8.5h4.1v26.7h-4.1V224zm4.3-10.4v4.7h-4.7v-4.7h4.7zm24.3 13.9h-10.6v16.1c-.7 5.5 7.4 4.6 11.3 3.5v3.6c-21.5 4.6-14.2-10.8-15.4-23.2h-5.6V224h5.6v-8.9h4.1v8.9h10.6v3.5zm4.2 28c5.6 1.7 9.1 1.4 12.4-5.8L256.7 224h4.5l11.4 21.5 10.9-21.5h4.5l-15.6 30.1c-2 5.1-8.9 7.4-14.4 5.2v-3.8zm57.7-27.4H309v-3.5h6.7c-1.3-9.8 6.1-13.9 16.4-11.1v3.7c-7.4-2.1-13.4-.8-12.3 7.5h11v3.5h-11v22.6h-4.1v-22.7zm45.8 9.3c.6-14.1-23.1-14-22.5 0-1 13.9 23.5 14 22.5 0zm-26.6-.5c-.6-17.9 31.4-18 30.7 0 1.1 19.5-31.8 19.4-30.7 0zm36.2-12.9h4.1v5.6c2.5-3.3 7.8-7.6 13.5-6.2v4.1c-5.7-2.6-13.7 5.5-13.5 7.2v16h-4.1V224zm42-10.4h4.5v33.1h29.2v4h-33.7zm62.2 21.1c-.9-10-20.3-10.9-21.5 0h21.5zm3.7 10.4c-6.4 10.2-30.3 8.2-29.5-7.9-.4-18.7 31.4-18.9 30.3 1h-26.1c.2 11.2 18.1 12.6 22.2 4.6l3.1 2.3zm7.3-2.7c3.6 6 18.8 8.7 20.4 1.1 0-7.6-22.2-1.1-22.2-12.1.1-12.4 24-8.2 25.4-2.3l-2.8 2.5c-2.1-4.9-18.1-7.6-18.5-.5 0 6.9 22.2.7 22.2 12.1-.8 11.7-21.8 10.3-27.6 2l3.1-2.8zm31.1 0c3.6 6 18.8 8.7 20.4 1.1 0-7.6-22.2-1.1-22.2-12.1.1-12.4 23.9-8.2 25.4-2.3l-2.8 2.5c-2.1-4.9-18.1-7.6-18.5-.5 0 6.9 22.2.7 22.2 12.1-.8 11.7-21.8 10.3-27.6 2l3.1-2.8z" class="st3"/></svg>