<svg xmlns="http://www.w3.org/2000/svg" xml:space="preserve" viewBox="0 0 600 300"><path d="M511.4 285.9v-12.1l-14.7-14.9h8.9l9.6 10.1 9.8-10.1h7.7L518 273.6v12.3h-6.6zM491 263.8h-20.6v16.9H491V275h-10.7v-4.8h17.1c-.6 5.8 2.7 17.1-7 15.8h-19.7c-5.3-.1-7-1.1-7.1-6.4v-14.4c.1-5.2 1.7-6.3 7.1-6.3h19.6c5.4 0 7.1 1.6 7 6.7l-6.4 1.1v-2.9zm-57.8 22.1v-10.2h6.2l11.3 10.2h9.4l-12.8-10.2c4.1.2 10.5.3 10-5.2-.3-2.7 1-8.4-1.5-10.4-2.6-2.5-25.6-.7-29.2-1.2v27h6.6zm17.4-21.9c1 1 1 5.6 0 6.6-1.1 1-15.8.3-17.4.5v-7.6c1.7.2 16.3-.5 17.4.5M393 285.9v-27h29v4.7h-22.4v6h13v4.6h-13v6.6h22.7v5l-29.3.1zm-40.4 0v-27h4.5l22.9 17.9v-17.9h6v27h-4.5l-22.9-18.2v18.2h-6zm-38.1 0v-33h33.7v5.6h-26.1v7.5h15.3v5.6h-15.3v8.2h26.4v6.2l-34-.1z" style="fill-rule:evenodd;clip-rule:evenodd;fill:#54b948"/><path d="M193.2 173.8c-8.9.8-14.2 1.2-14.2 15.5V230C29 306.1 8.6 66.3 161.7 111.8c1.6 0 8.3-1 9.5-6.7h4.5l1.6 42.6h-4.6c-5.5-14.5-16-34.6-44.3-34.6-58.8-5.7-72.4 124.3 3.4 123.3 13.7 0 27.7-4.7 27.7-11.9v-32.8c0-16.8-4-17-17.8-18V170h51.5v3.8zm311.7-152 14.2-9.5-176.5 178.3 45.7 52.6h-22.9l-34.1-39-77.8 76.6-11.7 7.2 86.7-87.9-48.7-50.9h22.7l37.2 37.5L504.9 21.8zm-33 207.1c-7.8 6.7-16.4 5.1-14.9-7.9-3.4-24.4 14-72.5-30.1-71.8-26.5-1.5-45.1 26.5-24.3 31.3 9.3-.4 9.7-8.9 8.1-16.6 2.2-14.2 31-14.8 29.9 6.9v12.3c-87 23.4-45.2 89.4.2 46.2 1.4 20.2 19.8 18.3 31.1 4.7v-5.1zm-31.3-11.5c0 6.1-.6 8.5-6.8 11.5-31 15.3-41-29.1 6.8-40.8v29.3zm-163.3-8.3c-15 29.5-60.8 33.7-63.5-22.8h62.9c-4-55.4-76.7-48.2-76.8 12.7 1 65.7 71.7 50.4 80.6 11.5l-3.2-1.4zm-62.9-29.3c3.2-17.8 11.1-23.2 22.3-23.2 16 0 18 13.5 19.4 23.2h-41.7z" style="fill:#00446a;fill-rule:evenodd;clip-rule:evenodd"/><path d="M550.5 265.6c.4 9.5-14.6 10-14.7.4-.5-9.6 14.7-10.1 14.7-.4zm-12.9 0c-.3 7.4 11.4 7.4 11 0 .9-7.9-11.8-7.9-11 0zm4.4 3.7h-1.7v-7.2c2.7-1.1 9 .9 4.5 3.6v.1c1.4.3 1.2 2.4 1.8 3.5h-1.7c-.6-1.5-.6-3.3-2.8-2.8l-.1 2.8zm0-4c3.2.5 3.2-2.8 0-2v2z" style="fill:#00446a"/></svg>