<svg xmlns="http://www.w3.org/2000/svg" xmlns:xlink="http://www.w3.org/1999/xlink" xml:space="preserve" id="_2_copy" x="0" y="0" version="1.1" viewBox="0 0 600 300"><style>.st0{fill:#046297}</style><path d="M274.4 84.4c-1.2-22.3 27.5-33.8 43.1-19.1l-3.6 4.2c-12.4-12.1-34.5-3.5-33.7 14.6-1.1 18.3 20.5 26.7 33.7 15.7V87.6h-15v-5h20.4v19.7c-16 15.5-46.3 5.4-44.9-17.9zm55.9-11.9h5.4V82c2.7-6.1 8-10.4 14.9-10.2v5.8c-16.6-.5-15.2 18.4-14.9 31.3h-5.4V72.5zm53 16.1c-.6-15.9-22.1-16.4-23.5 0h23.5zm-10.7 16.5c4.4 0 8.6-1.8 11.5-5.2l3.4 3c-10.6 13.2-33.7 6.3-33.2-12.2.5-26.5 37.2-24.3 34.4 2.2h-28.9c.8 7.8 6.4 12.2 12.8 12.2zm51.7-16.5c-.6-15.9-22.1-16.3-23.5 0h23.5zm-10.7 16.5c4.4 0 8.6-1.8 11.5-5.2l3.4 3c-10.6 13.2-33.7 6.3-33.2-12.2.5-26.5 37.2-24.3 34.4 2.2h-28.9c.8 7.8 6.5 12.2 12.8 12.2zm25-32.6h5.4v6.3c6.8-12.5 27.7-7.5 26.5 7.5V109H465c-1.3-8.7 5-33.2-10.1-32.3-15.6-.7-10 23.1-10.9 32.3h-5.4V72.5zm-162 49.7h5.7l17.9 26.9 18-26.9h5.6v49.4h-5.5v-40l-18 26.4h-.3l-18-26.3v39.9h-5.4v-49.4zm89.8 31.3c.3-18.7-27.3-18.9-26.9-.1-.2 18.5 27.1 18.5 26.9.1zm-32.5 0c.2-25.2 37.6-25.3 38-.1.1 24.7-38.1 25-38 .1zm46.5 4.2v-22.6h5.4c1.2 8.7-5 33.1 10.1 32.3 15.4.5 10-22.9 10.9-32.3h5.4v36.4h-5.4v-6.3c-6.4 12.2-27.5 7.9-26.4-7.5zm43.3-22.6h5.4v6.3c6.8-12.5 27.7-7.5 26.5 7.5v22.6h-5.4c-1.3-8.7 5-33.1-10.1-32.3-15.5-.7-10 23.1-10.9 32.3h-5.4l-.1-36.4zm44.6 26.8v-22h-5.1v-4.8h5.1v-11h5.4v11h11.6v4.8h-11.6v21.3c-.2 6.9 7 7.1 11.4 4.8v4.6c-7 3.5-17 1.6-16.8-8.7zm49.9-3.7v-3.4c-21.6-7.5-29.3 11.2-12.1 13.2 6.7 0 12.1-4 12.1-9.8zm-26.7 2.8c-.6-12.6 16.9-13.8 26.7-10.5 1.4-12.3-13.6-12.9-21.9-8.4l-1.6-4.4c7.2-3.7 19.4-4.8 25 .9 6.4 5.2 3 25.7 3.8 33h-5.3v-5.4c-6.6 9.5-26.4 8.2-26.7-5.2z" class="st0"/><defs><path id="SVGID_1_" d="M13.3 58.8H584v186.9H13.3z"/></defs><clipPath id="SVGID_2_"><use xlink:href="#SVGID_1_" overflow="visible"/></clipPath><path d="M534.8 135.1h5.4v36.4h-5.4v-36.4zm-.3-14h6.2v6h-6.2v-6zm17.6 14h5.4v6.3c6.8-12.5 27.7-7.5 26.4 7.5v22.6h-5.4c-1.3-8.7 5-33.1-10.1-32.3-15.5-.7-10 23.1-10.9 32.3h-5.4v-36.4z" class="st0" style="clip-path:url(#SVGID_2_)"/><path d="M276.6 184.8h35.7v5.1h-30.1v16.8h26.9v5.1h-26.9v17.3h30.4v5.1h-36v-49.4zm45.6 12.9h5.4v6.3c6.8-12.5 27.7-7.5 26.4 7.5v22.6h-5.4c-1.3-8.7 5-33.1-10.1-32.3-15.6-.8-10 23.1-10.9 32.3h-5.4v-36.4zm69.4 16.1c-.6-15.9-22.1-16.4-23.5 0h23.5zM381 230.3c4.4 0 8.6-1.8 11.5-5.1l3.4 3c-10.6 13.1-33.7 6.3-33.2-12.2.5-26.5 37.2-24.3 34.4 2.2h-28.9c.8 7.7 6.4 12.1 12.8 12.1zm25-32.6h5.4v9.5c2.7-6.1 8-10.4 14.9-10.1v5.9c-16.6-.5-15.2 18.4-14.9 31.2H406v-36.5zm55.8 16.5c.2-16-26.3-16.8-26-.2-.6 16.4 25.9 16.3 26 .2zm-29.9 26.3 2.5-4.2c12.2 8.9 29.8 5.5 27.2-12.7-8.5 13.7-31.9 7.7-31.4-9.4-.9-16.6 22.4-23.7 31.4-10v-6.6h5.5c-1.1 9.1 3.3 36.6-4.7 43-7.4 7.3-22.2 5.9-30.5-.1zm44.4 3.3 1.8-4.3c5.7 2.5 10.2 2.2 13.2-5.5l-16.6-36.3h6l13.3 30.4 11.7-30.4h5.8l-15.3 37.6c-4.1 10.9-11.6 12.3-19.9 8.5zm47.7-37.3c1.3 0 2.2-.6 2.2-1.6.1-2.1-3.4-1.5-4.8-1.6v3.3l2.6-.1zm-4-4.5c2.4.1 7.5-.9 7.6 2.8 0 1.4-1 2.5-2.4 2.7l2.8 3.7h-1.7l-2.7-3.5h-2.4v3.5H520V202zm11.7 4.9c.5-11-16.8-11-16.3 0-.5 10.9 16.8 10.9 16.3 0zm-17.1 0c.7-10.6 17.1-10.6 17.9 0-.7 10.6-17.1 10.6-17.9 0z" class="st0"/><path d="m106.5 178.9 68.7-73.2c1.1-1.2 2.9-1.2 4.1-.1l59 56v-14.1c-83.9-79.5-48-64.4-132.3 16.9-55.2-53.8-36.9-38.2-92.8 17.2v15.2l50-54.8c1.8-5.9 34 29.8 35.7 29.9l-58.3 62h14.1l51.8-55z" style="fill:#fff"/><path d="M232.9 58.8H18.6c-3 0-5.4 2.4-5.4 5.4v117.5c55.9-55.4 37.5-71 92.7-17.2 84.4-81.3 48.5-96.4 132.3-16.9V64.1c.1-2.9-2.3-5.4-5.3-5.3z" class="st0"/><path d="M238.3 228.6v-66.9c-2.4-.1-60.4-62.3-63.1-55.9L106.5 179l-51.6 55H233c2.9-.1 5.3-2.5 5.3-5.4zM67 141.9c-1.1-1-2.7-.9-3.7.1l-50 54.8v31.7c0 3 2.4 5.4 5.4 5.4h22.1L99 171.8l-32-29.9z" style="fill:#2ab673"/></svg>