<svg xmlns="http://www.w3.org/2000/svg" xml:space="preserve" id="_2_copy" x="0" y="0" version="1.1" viewBox="0 0 600 300"><style>.st0{fill:#002e6d}.st1{fill:#76bc21}</style><path d="M286.6 182.9c-10.6 3-10.2-10.9-10.2-17.8l.2-30.1h12c1.6-4.3 6.1-10.6 6.1-10.6H276v-18.6h-4.8c-1.4 6.3-4.9 14.7-13.5 17.6 1.5 11.6-4.1 56.6 4.9 65.1 6.5 8 23.8 6.5 30.6-.9v-8.3c-1.8 1.5-4.1 2.9-6.6 3.6z" class="st0"/><path d="M214.6 223.6c-9.1-5.9-21.4-1.5-27.2 7v-8.5h-6.1v48.4h6.1c.2-6.8-.5-26.2.9-31.3 2.2-9.8 14.8-16.6 23.5-10.3 8.3 7.2 3.5 31 4.7 41.6h6.1c-1.3-13 4.7-39.1-8-46.9zm-49.8 6.5c-22.4-26.1-58.9 7.4-37.1 33 10 12.1 33.5 9.4 40.1-5.6h-7.1c-10 14.4-34.4 6.6-33.3-11.2H170c-.1-6.5-1.8-11.9-5.2-16.2zM128 241c3.6-19.1 32-18.5 35.3 0H128zm175.3-18.1c-2.4 1.6-4.4 3.7-5.9 6.1v-6.9h-6.2v48.5h6.2c1.2-13.3-5.5-47.3 14.5-42.9l3.2-5.1c-3.5-2.4-8.3-2.2-11.8.3zm57.8 7.4c-18-23.7-54.7 1.7-40.1 27.1 7.9 14.3 30.2 16.1 40.1 2.9.2 4.9-.3 11.4-1.8 13.8-7 11.6-27.9 10.9-34.2-1.1h-6.6c6.7 19 39.8 20.6 47 1.3 3.3-7.8 1.2-42.8 1.7-52.3h-6.1v8.3zm-4.8 28.3c-15.2 14.2-41-3.3-29.7-22.5 15.2-23.7 48.2 1.8 29.7 22.5zM277 230.1c-13.9-18.4-44.5-7.2-43.6 15.8-1 25.5 35.3 34.4 46.6 11.5h-7c-9.9 14.4-34.4 6.6-33.3-11.2h42.6c-.1-6.5-1.9-11.8-5.3-16.1zM240.2 241c3.6-19.1 32-18.5 35.3 0h-35.3zm175.4-20.1-15.8 36.4-16.2-36.4h-6.5l19.5 43.7-10.1 23.3h6.4l29.2-67z" class="st1"/><path d="M97.8 196.1c2.1 17.2-11.2 29.7-26.9 33.6l-3.2-8.2c8.8-2.7 10.9-11.2 9.9-19.5v-77.7h27.1v4.4c-6.4.8-7.3 7.1-6.9 12.4v55zm16.5-71.7h25c.8 11.1-2 44.9 1.9 54.7 4.8 9.3 18.4.7 18-7.8v-25.8c-.4-7.2 1.7-15-6.4-16.8v-4.4h25v48.6c.2 7.2-1.2 14.5 7.1 15.6v4.9H160v-10l-.5-.2c-8.8 11-31.2 16-36.8-.1-3.1-8.5-1.4-28.6-1.8-37.6-.3-6.7 1.7-15.3-6.4-16.8l-.2-4.3zm88.2 49.7c1.5 16.3 29.4 16.3 22.4-1.4-6.2-8-18-8.6-24.7-16.2-9.5-9.2-4.5-25.7 7.9-29.2 11.9-4 22.3-2.3 34.9-.2v15.5h-8.5c-3.3-18.5-32.4-10.4-17.3 4.7 14.4 6.9 33.4 14.8 24.6 34.5-9.4 16.4-32.5 11.5-47.9 8.3v-16h8.6z" class="st0"/><path d="M464.2 92c-19.7 11.5-27.2 21.8-29.1 24.7 32.4 9.4 51.8 19.7 66-19.9 1.9-4.2 4.5-8.1 7.7-11.4-17.2-2.8-30.7.8-44.6 6.6z" class="st1"/><path d="m419.4 112.3 1 .3c10.6-8.2 62.9-40.1 91.2-30.1 10.7-10.1 24-15.6 24.1-15.7s-74.8-12.5-116.3 45.5z" class="st0"/><path d="M457.5 162.5c-11.6-19.6-21.9-27.1-24.8-29-9.2 32.5-19.4 52 20.2 66 4.2 1.9 8.1 4.4 11.5 7.6 2.6-17.2-1-30.7-6.9-44.6z" class="st1"/><path d="M437 117.9s-.1.3-.3 1c8.5 10.9 40.4 62.3 30.6 91 10.2 10.6 15.8 23.9 15.9 24s12-75-46.2-116z" class="st0"/><path d="M386.3 155.9c19.6-11.5 27.2-21.8 29.1-24.7-32.4-9.3-51.9-19.7-66 19.9-1.9 4.2-4.5 8.1-7.7 11.4 17.1 2.7 30.6-.8 44.6-6.6z" class="st1"/><path d="m431 135.6-1-.3c-10.9 8.4-62.6 40-91.2 30.1-10.6 10.1-24 15.6-24.1 15.7s74.9 12.4 116.3-45.5z" class="st0"/><path d="M393.2 85c11.6 19.6 21.9 27.2 24.7 29 9.3-32.5 19.5-51.8-20-66-4.2-1.9-8.1-4.5-11.5-7.6-2.6 17.2 1 30.7 6.8 44.6z" class="st1"/><path d="M413.6 129.7s.1-.4.3-1c-8.4-10.9-40.1-62.5-30.3-91.1-10.2-10.6-15.7-24-15.8-24.1s-12.2 75 45.8 116.2z" class="st0"/><path d="M429 124.7c-1 4.9-8.8 3.2-7.6-1.7 1.1-4.9 8.8-3.2 7.6 1.7zm5.4 98.1h1.4c1.8-.3 2.2 2.5.4 2.6.8 0 1.2 2.2 1.6 2.7h-.6c-.5-.9-.8-3-2.2-2.5v2.5h-.5l-.1-5.3zm.6 2.4c2.4.4 2.6-2.3 0-1.9v1.9z" class="st1"/><path d="M440.5 225.6c.1 6-9.2 6-9.2 0-.1-5.9 9.3-6 9.2 0z" style="fill:none;stroke:#76bc21;stroke-width:2"/></svg>