<svg xmlns="http://www.w3.org/2000/svg" xml:space="preserve" id="Layer_1" x="0" y="0" aria-label="Homepage" class="block show-sm" version="1.1" viewBox="0 0 116 32"><style>.st0{fill:#758592}.st1{fill:#f5a800}</style><path d="m101.9 17.2-.1 1.2s0 .2-.1.2c-.1.1-.4.1-.5.1h-4.6l.2-1.7h5.2c-.1.1-.1.1-.1.2m3.3-.5c.1-.7 0-1.4-.6-1.9-.5-.5-1.4-.6-2.1-.6h-9L92.4 25h3.4l.4-3.7h1.5l3.6 3.7h5l-4.2-3.7c.7 0 1.5-.1 2-.6.6-.4.8-1.1.9-1.8l.2-2.2zm-62.2.5-.1 1s0 .2-.1.2c-.1.1-.4.1-.5.1h-4.6l.2-1.5h5.2c-.1.1-.1.1-.1.2m2.9-2.3c-.5-.5-1.4-.6-2.1-.6h-9l-1.1 10.8H37l.4-3.8h5.8c.7 0 1.5-.1 2.1-.6.6-.4.8-1.1.9-1.8l.2-2.2c.1-.6 0-1.4-.5-1.8m12 2.2-.5 5.1h-6.6l.5-5.1h6.6zm3-2.2c-.6-.6-1.6-.7-2.3-.7h-7.4c-.8 0-1.8.1-2.4.6-.6.5-.8 1.4-.9 2.2l-.5 5.1c-.1.7-.1 1.7.5 2.2.5.6 1.6.7 2.3.7h7.4c.8 0 1.8-.1 2.4-.6.6-.5.8-1.4.9-2.2l.5-5.1c0-.7 0-1.6-.5-2.2m6.2 5 2.8-5.6h2.4l1.7 5.5 2.7-5.5H80l-5.4 10.8h-2.3l-1.8-5.9-3 5.9h-2.4L62 14.3h3.5l1.6 5.6zM84 17l-.1 1.1h4.6l-.3 2.7h-4.6l-.2 1.4h8l-.3 2.9H79.7l1.1-10.8h11.4l-.3 2.7H84z" class="st0"/><path d="M65.7 2.7h2.7l-.7 7.9h5.7l-.2 2.4h-8.5l1-10.3zm-.6 0-5 5.7-.3 4.6h-2.4l.4-4.6-4.1-5.7h3.1l2.4 3.6 3-3.6h2.9zM43.8 5.4l-.1 1c0 .1 0 .3-.2.4-.1.2-.4.2-.6.2h-4.7l.2-2h4.8c.1 0 .5 0 .6.1v.3m2.3-2.2c-.5-.4-1.2-.5-1.8-.5h-8.4l-1 10.3h2.7l.4-3.8h5.8c.6 0 1.4-.1 1.9-.5s.7-1 .7-1.6l.2-2.2c0-.6-.1-1.2-.5-1.7m6 5.4h-2.8L51 5.5l1.1 3.1zm4.3 4.4L52.2 2.7h-2.1L44.3 13h2.5l1.1-2.1h5l.8 2.1h2.7zm21.4-8.1-.2 1.6H82l-.2 2.2h-4.4l-.2 1.9h6.6l-.2 2.4h-9.4l1-10.3h9.2l-.2 2.2h-6.4zm15.1.1h-5l-.1 1.5h4.9c.6 0 1.4.1 1.8.6s.4 1.4.3 2l-.1 1.3c-.1.7-.2 1.5-.7 2s-1.2.6-1.8.6h-5.1c-.6 0-1.4-.1-1.8-.6-.3-.5-.3-1.4-.3-2v-.5l2.2-.5-.1 1.2h5.4l.1-1.7h-4.9c-.6 0-1.4-.1-1.8-.6s-.4-1.4-.3-2l.1-1.1c.1-.7.2-1.5.6-2 .5-.5 1.2-.6 1.8-.6h4.7c.5 0 1.3.1 1.7.5.4.5.4 1.3.4 1.9v.4l-2.2.6.2-1zm11 0h-5l-.1 1.5h4.9c.6 0 1.4.1 1.8.6s.4 1.4.3 2l-.1 1.3c-.1.7-.2 1.5-.7 2s-1.2.6-1.8.6h-5.1c-.6 0-1.4-.1-1.8-.6-.3-.5-.3-1.4-.3-2v-.5l2.2-.5-.1 1.2h5.4l.1-1.7h-4.9c-.6 0-1.4-.1-1.8-.6s-.4-1.4-.3-2l.1-1.1c.1-.7.2-1.5.6-2 .5-.5 1.2-.6 1.8-.6h4.7c.5 0 1.3.1 1.7.5.4.5.4 1.3.4 1.9v.4l-2.2.6.2-1zM15.7 7.3c1.4 0 2.4 1 2.3 2.2-.2 1.5-.3 3-.5 4.5s-.3 3.1-.5 4.7-.4 3.3-.5 5c-.2 1.7-.4 3.5-.6 5.3-.2 1.6-1.6 2.9-3.2 2.9S10 30.6 10.2 29c.2-1.8.5-3.6.7-5.3.2-1.7.5-3.4.7-5s.4-3.2.7-4.7l.6-4.5c.1-1.2 1.4-2.2 2.8-2.2" class="st1"/><path d="M15.5 4c-2.5.1-4.9 1.1-6.7 2.6-1.9 1.5-3.3 3.6-3.7 6-.3 1.9 0 3.7.8 5.2.8 1.6 2.2 2.8 4.1 3.6-.3 1.7-.5 3.5-.8 5.3-1.7-.5-3.2-1.2-4.4-2.1-1.3-.9-2.3-2.1-3.1-3.3C.9 20.1.4 18.7.2 17.2c-.2-1.4-.2-3 .1-4.5.4-1.8 1.1-3.5 2.1-5s2.2-2.8 3.7-3.9c1.4-1.1 3-2 4.7-2.6s3.5-1 5.3-1c-.3 1.2-.4 2.5-.6 3.8" class="st0"/><path d="M17.1.1c1.8.1 3.5.4 5 1s2.9 1.5 4 2.6c1.2 1.1 2.1 2.4 2.7 3.9s1 3.2.9 4.9c-.1 1.5-.4 3.1-1 4.5-.6 1.5-1.5 2.9-2.5 4.1-1.1 1.3-2.4 2.4-3.9 3.3s-3.2 1.7-4.9 2.1c.2-1.8.4-3.5.5-5.3 2-.8 3.7-2 4.9-3.6 1.2-1.5 1.9-3.3 2.1-5.2.2-2.4-.7-4.5-2.2-6S19.1 4 16.6 3.8c.2-1.1.4-2.4.5-3.7m94.8 4.5c0 1.1-.9 2-2 2s-2-.9-2-2 .9-2 2-2 2 .9 2 2zm-3.5 0c0 .9.6 1.6 1.5 1.6s1.5-.7 1.5-1.6c0-.9-.6-1.6-1.5-1.6s-1.5.7-1.5 1.6zm1.2 1h-.5v-2c.2 0 .4-.1.8-.1s.5.1.7.1c.1.1.2.2.2.4s-.2.4-.4.5c.2.1.3.2.4.5.1.3.1.4.1.5h-.5c-.1-.1-.1-.3-.2-.5 0-.2-.2-.3-.4-.3h-.2v.9zm0-1.1h.2c.3 0 .5-.1.5-.3 0-.2-.1-.3-.4-.3h-.3v.6z" class="st1"/></svg>