<svg xmlns="http://www.w3.org/2000/svg" xml:space="preserve" id="_2_copy" x="0" y="0" version="1.1" viewBox="0 0 600 300"><style>.st0{fill:#231f20}.st2{fill:#fed206}</style><path d="M50.6 105.2H69l.5 9.6c7.3-9.7 20.9-13.5 32.3-9.6l-3.9 18c-38.9-10.2-26 36.6-28.1 58.1H50.6v-76.1zM175 170.3c-34.1 32.7-89 4.3-72.3-43.5 7.1-20.9 34.8-30.1 53.5-20.3 15.5 7.7 20.4 26.4 19.9 42.5h-56.9c1.1 22.3 33.1 22.9 45.5 9.6l10.3 11.7zm-18.7-35.1c0-22.2-36.7-21.5-37.3 0h37.3zM187.5 73h19.2v108.3h-19.2zm35.2 0h20.4v20.1h-20.4V73zm.7 32.2h19.2v76.1h-19.2v-76.1zm80.5 69c-12.2 13.5-38.9 13.3-47.5-4.1-7-14.5 1.6-33.1 17.5-36.5 9.7-2.8 20-1.6 30-1.1.7-19.4-27.9-15.5-38-7.3l-8.8-13c15.6-11 40.6-14.3 56.3-1.9 15.3 10.3 6.6 56 8.8 71h-17.8l-.5-7.1zm0-27.3c-8.2-.2-22.2-2.5-27.8 3-4.5 4-5.3 12.1-.2 16 8.7 6.5 27.7 1.1 28-11.5v-7.5zm32.7-41.7h18.3l.5 8.6c10.2-13 34.6-13.7 44.6-1.7 12.5 11.6 5.9 53.7 7.5 69.3h-19.2c-1.5-8.6 3.8-51.5-4-57.4-8.7-8.5-23.9-2.7-27.3 8.3-2.7 4.7-.9 43.3-1.4 49.1h-19.1v-76.2zm88.1 15.6h-13v-15.6h13V80.5h19.2v24.7h20.5v15.6h-20.5c1.9 15.1-9 62.1 21.6 42.4l8.1 11.8c-11.4 10.1-32.4 13.2-43.3 1-9.5-11.7-4.3-41.3-5.6-55.2zM68.9 274.7c-.1-1.3-.1-3.1-.1-4.6-20.8 19.3-31.5-18.7-.2-11.7 1.9-10.1-10.6-11.6-16.7-6.5l-1.4-1.8c4.5-4.1 13.5-4.6 18-1.2 5.4 4.6 1.8 19.4 3 25.8h-2.6zm-.2-13.9c-7.8-2.5-22.7.5-14.9 10.8 7.4 4.6 16.8-2.4 14.9-10.8zm9.1-7.6c0-1.6.1-4.2-.1-5.8h2.5c.2 1.8.2 3.8.1 5.7 3.2-6.7 13.7-8.9 18.8-3.1 4 5.1 1.7 18.8 2.3 24.8h-2.7c-.6-5.7 1.7-18.7-2.1-23.5-5-4.8-14.1-1.2-15.6 5.4-1.2 2.7-.4 15.1-.6 18.1h-2.7v-21.6zm42.1-18.1h3l25.4 35.4v-35.4h2.8v39.6h-3l-25.4-34.8v34.8h-2.8zm40.8 0c4.6.2 14.2-.6 18.5.8 10.5 2.4 9.7 19.6-.9 21.3l9.4 17.5h-3.3l-9.2-17.2h-11.7v17.2h-2.8v-39.6zm13.1 19.8c13.6 1.1 12.5-18.7-.4-17.1h-9.9v17.1h10.3zm50.3 3.8h-10.6V256H227v14.8c-17.7 13.8-41-2.7-33-24 4-13.5 24.5-17.6 32.1-5.1l-2.1 1.5c-6.7-10.5-24-7.2-27.2 4.6-6.5 17.5 11.7 32.6 27.4 21.8v-10.9zm44.5 12c-8.1 9.8-25.4 3.3-24.5-9.6-1-12.6 16.4-19.6 24.1-9.5l-2 1.5c-6.4-8.3-20.1-2.1-19.3 8-.7 10.4 13.2 16.2 19.8 8l1.9 1.6z" class="st0"/><path d="M285.3 275.5c-22.2-.8-15.5-35.6 5.4-27.6 13.9 5.5 9.6 27.9-5.4 27.6m-.1-2.5c12.3.2 15.4-18.3 4.4-22.9-16.9-6.7-22 22.2-4.4 22.9m20.5-19.8c0-1.6.1-4.2-.1-5.8h2.5c.2 1.8.2 3.8.2 5.7 3.3-7.8 17.2-9.3 19.3.1 3.1-6.3 13.6-9.3 18.4-3.2 3.6 5.2 1.5 18.8 2 24.8h-2.7c-.9-6.2 2.9-21.9-4.2-25.1-15.7-3.5-12.8 15.6-12.9 25.1h-2.7c-.6-5.7 1.5-18.5-1.9-23.4-4.7-5.1-13.2-.7-14.6 5.4-1.2 2.7-.4 15.1-.6 18.1h-2.8v-21.7zm49.7 0c-.1-1.6.1-4.2-.1-5.8h2.5c.1 1.8.3 3.1.2 5 3.7-7 14.7-7.7 19.4-1.5 9.7 13.5-4.5 31.5-19.5 22.1v13.6h-2.6v-33.4zM358 270c12.1 9.6 25.2-5 17.3-17.1-4.2-6.2-14.6-4-16.6 3-1.3 3.4-.5 10.5-.7 14.1z" class="st0"/><path d="M405.3 274.7c-.1-1.4-.1-3.2-.1-4.6-20.8 19.3-31.5-18.7-.2-11.7 1.9-10.1-10.6-11.6-16.7-6.5l-1.4-1.8c4.5-4.2 13.5-4.6 18-1.2 5.5 4.6 1.7 19.4 3.1 25.8h-2.7zm-.2-13.9c-7.8-2.5-22.7.5-14.9 10.9 7.5 4.5 16.8-2.5 14.9-10.9zm10.3-7.6c0-1.6.1-4.2-.1-5.8h2.5c.2 1.8.2 3.8.1 5.7 3.2-6.7 13.7-8.9 18.8-3.2 4 5.1 1.7 18.8 2.3 24.8h-2.7c-.6-5.7 1.7-18.6-2.1-23.4-5-4.8-14.1-1.2-15.6 5.4-1.2 2.7-.4 15.1-.6 18.1h-2.7v-21.6zm28.4 30.4c6.3 5.4 8.8-4.9 10.5-9.2l-12.2-27h3l10.5 23.7 9.1-23.7h2.9l-13.4 33.8c-1.2 5.1-7.5 8.4-11.6 4.3l1.2-1.9z" class="st0"/><path d="M486.8 10.2h13v20.6h-13zm-22.5 22.4H485v13h-20.7zm37.2 0h20.7v13h-20.7z" style="fill:#eb0a8c"/><path d="M523.9 47.3h12.9v20.6h-12.9zm0 37.2h12.9v20.6h-12.9z" class="st2"/><path d="M501.5 69.8h20.7v13h-20.7z" style="fill:#429444"/><path d="M538.6 69.8h20.7v13h-20.7z" class="st2"/><path d="M486.8 47.3h13v20.6h-13z" style="fill:#33348e"/><path d="M486.8 84.5h13v20.6h-13zm-22.5-14.7H485v13h-20.7z" style="fill:#2babe2"/><path d="M491.9 181.7c-14.3.3-14.3-22.5 0-22.1 14.3-.3 14.3 22.5 0 22.1zm0-2.1c11.3.3 11.3-18.1 0-17.8-11.3-.3-11.3 18.1 0 17.8zm-3.8-14.6c1.3.1 4.9-.3 6.1.3 2.9.9 2.8 5.3 0 6.3l2.7 4.6h-2.4l-2.5-4.3h-1.8v4.3h-2.1V165zm4.2 5.2c1.6.2 2.5-1.9 1.4-3-.8-.7-2.5-.3-3.5-.4v3.4h2.1z" class="st0"/></svg>