<svg xmlns="http://www.w3.org/2000/svg" id="_2_copy" data-name="2 copy" viewBox="0 0 600 300"><defs><style>.cls-1{fill:#40019c;stroke-width:0}</style></defs><path d="M20.83 101.8h13.3v20.09c7.05-15.17 19.55-22.48 36.98-21.82v13.04c-21.95-.66-36.98 18.09-36.98 46.03v35.79h-13.3v-93.12Zm64.91-59.86h13.3v71.43c5.59-8.38 14.9-13.57 25.81-13.57 23.81 0 38.05 15.3 38.05 41.9v84.74c0 10.77 6.25 16.36 15.43 16.36 7.98 0 14.5-4.39 19.96-18.62l8.38-22.22-38.71-95.24 12.24-5.46 32.86 84.07 24.48-64.78c4.92-13.17 12.24-18.75 25.01-18.75h8.11V41.94h13.3v59.86h18.22v12.63h-18.22v52.68c0 12.51 6.52 19.95 17.29 19.95s17.56-7.18 17.56-19.95V41.94h13.3v71.57c5.59-8.38 14.9-13.57 25.81-13.57 23.94 0 38.05 15.3 38.05 41.77v30.73c0 8.91 4.26 14.63 11.57 14.63s11.04-5.05 11.04-14.63v-70.5h13.3v11.57c5.59-8.38 14.9-13.57 25.81-13.57 16.49 0 27.67 7.32 31.93 22.22 4.12-12.91 16.36-22.22 31.93-22.22 23.94 0 38.05 15.3 38.05 41.77v26.74c0 12.91 7.72 20.35 19.55 19.15v11.84c-20.22 1.33-32.86-10.64-32.86-30.86v-26.87c0-17.82-8.78-29.13-24.74-29.13s-25.81 11.44-25.81 29.13v53.34h-13.3v-53.33c0-17.82-8.78-29.13-24.74-29.13s-25.81 11.44-25.81 29.13v30.73c0 17.29-9.18 27.27-24.34 27.27s-24.87-10.37-24.87-27.27v-30.73c0-17.82-8.78-29.13-24.74-29.13s-25.81 11.44-25.81 29.13v25.41c0 20.88-11.04 32.46-30.86 32.46s-30.6-12.37-30.6-32.46v-52.68h-6.92c-6.39 0-11.17 4.13-13.97 11.71l-39.64 103.76c-7.18 18.75-17.82 25.54-31.26 25.54-17.96 0-29.27-10.11-29.27-29v-84.73c0-17.96-8.91-29.27-24.74-29.27s-25.81 11.44-25.81 29.27v53.21l-13.3-.13V41.94Z" class="cls-1"/><path d="M407.48 227.77c-1.25-1.41-2.84-2.54-4.72-3.37-1.88-.83-4.08-1.25-6.53-1.25-2.23 0-4.34.42-6.26 1.24-1.92.83-3.63 1.99-5.06 3.47-1.43 1.48-2.56 3.24-3.37 5.25s-1.21 4.23-1.21 6.59.42 4.59 1.24 6.59c.82 2.01 1.97 3.78 3.4 5.25 1.43 1.48 3.16 2.65 5.15 3.47 1.98.83 4.17 1.24 6.5 1.24 2.58 0 5.04-.52 7.3-1.55 2.25-1.03 4.35-2.75 6.23-5.12l.11-.13-3.68-2.89-.1.16c-.87 1.39-2.16 2.64-3.84 3.71-1.67 1.06-3.7 1.61-6.01 1.61-1.57 0-3.05-.3-4.4-.89-1.35-.59-2.55-1.39-3.55-2.4-1-1-1.8-2.2-2.36-3.55-.55-1.3-.85-2.7-.91-4.16h25.83l.02-.15c.04-.41.07-.79.07-1.15v-1c0-2.14-.33-4.18-.97-6.06-.65-1.86-1.61-3.53-2.87-4.93Zm-22 9.37c.1-1.24.43-2.45.97-3.59.56-1.2 1.34-2.28 2.3-3.22.96-.94 2.08-1.69 3.34-2.23 1.26-.55 2.65-.82 4.13-.82 3.17 0 5.66.96 7.37 2.84 1.69 1.85 2.62 4.21 2.78 7.01h-20.89Zm47.64-14c-2.24 0-4.4.58-6.41 1.72-1.89 1.07-3.3 2.46-4.22 4.15 0-.58-.03-1.28-.06-2.11-.04-1-.11-1.95-.2-2.81l-.02-.15h-4.67l.02.19c.09 1.06.15 2.27.2 3.59.04 1.37.06 2.44.06 3.26v24.49h4.87v-16.16c0-2.06.27-3.87.79-5.38.52-1.5 1.23-2.76 2.1-3.74.87-.97 1.87-1.71 2.97-2.19s2.26-.72 3.43-.72c1.61 0 2.96.26 4.03.78 1.05.52 1.91 1.25 2.53 2.17.63.94 1.08 2.07 1.34 3.37.26 1.31.4 2.8.4 4.43v17.43h4.87v-19.29c0-3.89-1.01-7.06-3-9.44-2-2.39-5.04-3.59-9.03-3.59Zm44.44 4.63c-1.25-1.41-2.84-2.54-4.72-3.37-1.88-.83-4.08-1.25-6.54-1.25-2.23 0-4.34.42-6.26 1.24-1.92.83-3.63 1.99-5.05 3.47-1.43 1.48-2.56 3.24-3.37 5.25s-1.21 4.23-1.21 6.59.42 4.59 1.24 6.59c.82 2.01 1.97 3.78 3.4 5.25 1.43 1.48 3.16 2.65 5.16 3.47 1.98.83 4.17 1.24 6.5 1.24 2.58 0 5.04-.52 7.3-1.55s4.35-2.75 6.23-5.12l.11-.13-3.68-2.89-.1.16c-.87 1.39-2.16 2.64-3.84 3.71-1.67 1.06-3.7 1.61-6.01 1.61-1.57 0-3.05-.3-4.4-.89-1.35-.59-2.55-1.39-3.55-2.4-1-1-1.8-2.19-2.36-3.55-.55-1.3-.85-2.7-.91-4.16h25.83l.02-.15c.05-.42.07-.8.07-1.15v-1c0-2.14-.33-4.18-.97-6.06-.65-1.86-1.62-3.53-2.87-4.93Zm-22 9.37c.1-1.24.43-2.45.97-3.59.56-1.2 1.33-2.28 2.3-3.22.96-.94 2.08-1.69 3.34-2.23 1.26-.55 2.65-.82 4.13-.82 3.17 0 5.66.96 7.37 2.84 1.69 1.85 2.62 4.21 2.78 7.01h-20.89Zm48.01-13.93c-.48-.04-1.01-.07-1.58-.07-2.24 0-4.29.58-6.09 1.73-1.67 1.07-2.98 2.46-3.87 4.14 0-.58-.03-1.27-.06-2.11-.04-1.02-.11-1.96-.2-2.81l-.02-.15h-4.67l.02.19c.09 1.06.15 2.27.2 3.59.04 1.36.07 2.43.07 3.26v24.49h4.87v-16.13c0-2.05.26-3.84.76-5.3s1.16-2.67 1.97-3.6c.8-.93 1.75-1.62 2.83-2.05 1.65-.65 3.41-.78 5.24-.52.62.09 1.05.18 1.3.26l.2.06.65-4.68-.14-.04c-.5-.13-.99-.22-1.47-.27Zm31.06 5.93c-1.24-1.88-2.93-3.36-5.02-4.38-2.19-1.07-4.46-1.62-6.74-1.62-2.45 0-4.71.43-6.69 1.28-1.99.85-3.71 2.03-5.12 3.5a16.079 16.079 0 0 0-3.3 5.18c-.78 1.97-1.18 4.09-1.18 6.33s.39 4.43 1.18 6.39c.78 1.97 1.89 3.68 3.3 5.09 1.41 1.41 3.13 2.53 5.12 3.33 1.99.81 4.24 1.21 6.69 1.21 2.28 0 4.56-.54 6.77-1.62 2.11-1.02 3.79-2.47 4.99-4.31v5.49c0 1.66-.22 3.24-.66 4.72-.44 1.46-1.13 2.75-2.06 3.84-.94 1.08-2.18 1.95-3.7 2.58-1.53.63-3.41.95-5.6.95-2.36 0-4.63-.55-6.75-1.65-2.12-1.1-3.82-2.45-5.04-4.02l-.12-.15-3.51 3.73.11.12c1.87 1.96 4.15 3.52 6.78 4.64 2.63 1.12 5.43 1.68 8.33 1.68 3.48 0 6.35-.54 8.54-1.62 2.19-1.07 3.95-2.44 5.22-4.05 1.28-1.61 2.16-3.4 2.63-5.33.47-1.91.7-3.74.7-5.43v-31.09h-4.87v5.2Zm-2.82 1.75c1.04 1.09 1.87 2.37 2.46 3.81.59 1.44.89 2.99.89 4.6 0 1.79-.3 3.44-.89 4.9s-1.41 2.73-2.46 3.78c-1.05 1.04-2.3 1.86-3.74 2.42-1.44.57-3.03.86-4.73.86-1.83 0-3.49-.32-4.93-.95s-2.66-1.5-3.64-2.59c-.98-1.09-1.74-2.37-2.27-3.81s-.79-2.99-.79-4.6.27-3.17.79-4.6c.52-1.44 1.29-2.72 2.27-3.81.98-1.08 2.2-1.97 3.64-2.62 1.44-.65 3.09-.98 4.93-.98 1.7 0 3.29.33 4.73.98 1.44.65 2.7 1.53 3.75 2.62Zm44.17-7.08c-4.33 0-6.86 1.86-8.49 6.21l-7.24 19.65-10.46-26-4.83 2.02-.16.07 12.7 29.49-2.48 6.4c-.65 1.73-1.41 3.07-2.27 3.99-.82.88-1.97 1.32-3.42 1.32-1.11 0-2.2-.18-3.22-.52l-.4-.13-.55 4.86.31.06c1.35.27 2.74.4 4.13.4 2.79 0 4.97-.76 6.47-2.27 1.47-1.47 2.7-3.45 3.64-5.88l12.37-31.46c.87-2.37 2.4-3.68 4.3-3.68h2.79v-4.54h-3.18ZM561.4 94.03h-3.36v-1.25h8.15v1.25h-3.41v10.01h-1.38V94.03Zm6.65-1.25h1.39l4.14 7.28h.03l4.14-7.28h1.38v11.26h-1.38v-8.58h-.03l-3.66 6.31h-.94l-3.66-6.31h-.02v8.58h-1.39V92.78Z" class="cls-1"/></svg>