<svg xmlns="http://www.w3.org/2000/svg" id="_2_copy" data-name="2 copy" viewBox="0 0 600 300"><defs><style>.cls-3{stroke-width:0;fill:#ef3e43}</style></defs><path d="M488 114.74h-99.71l-35.03-94.49-35.03 94.49h-76.75l23.09 14.45h64.55l24.14-67.12 24.15 67.12h66.74l-54.33 37.98 24.42 69.19.08.23 21.27 17.51-28.22-80.78L488 114.74z" class="cls-3"/><path d="m385.46 198.3-.14-.4-17.59-6.24 24.81 70.3.08.23 21.28 17.5-28.44-81.39z" class="cls-3"/><path d="M142.42 129.19h-30.45V114.7h77.4v14.49h-30.65v78.42h-16.3v-78.42Zm80.91 74.72c-3.72 2.83-9.88 5.14-16.82 5.14-16.68 0-30.42-12.58-30.42-32s14.25-34 33.63-34c5.62 0 11.15 1.33 16.17 3.85l13-2.31v63h-15.3V204l-.26-.09Zm0-44.28a28.887 28.887 0 0 0-13-3.34c-11.68 0-18.62 8.6-18.62 19.9s6.68 19.76 18.1 19.76c4.84-.03 9.54-1.55 13.48-4.36l.04-31.96Zm27.34-15.15h15.4v8.86l.26.13a22.073 22.073 0 0 1 18.35-9.63c1.43-.02 2.86.15 4.24.51v14.89c-1.68-.43-3.4-.65-5.13-.64-7.32 0-13.23 3.21-17.59 9.37v39.66h-15.53v-63.15Zm87.11 59.43c-3.72 2.83-9.88 5.14-16.81 5.14-16.69 0-30.42-12.58-30.42-32s14.25-34 33.63-34c5.62 0 11.15 1.33 16.17 3.85l13-2.31v63h-15.31V204l-.26-.09Zm0-44.28a28.758 28.758 0 0 0-13-3.34c-11.68 0-18.61 8.6-18.61 19.9s6.67 19.76 18.1 19.76c4.83-.03 9.54-1.56 13.47-4.36l.04-31.96Z" style="fill:#283a86;stroke-width:0"/><path d="M142.21 245.86c.04-5.91 2.24-11.6 6.19-16 3.81-4.3 9.25-6.8 15-6.88 8.59 0 14.54 5.57 14.54 14.78.01 2.14-.27 4.28-.85 6.34h-30.24c-.07.51-.09 1.03-.08 1.55 0 8.28 5.57 13 13.7 13 4.43-.06 8.76-1.36 12.5-3.74l-.86 4.88a26.628 26.628 0 0 1-12.22 2.94c-10.18 0-17.68-6.27-17.68-16.87Zm5.26-5.57h26.07c.08-.77.16-1.55.16-2.24 0-7-4.49-11-10.68-11-4.31.02-8.41 1.91-11.22 5.18a20.252 20.252 0 0 0-4.33 8.06Zm40.78-16.48h4.57l-1 5.57.16.08c4.25-3.56 9.36-6.5 15.09-6.5 6.5 0 11 3.94 11 10.75-.07 1.95-.3 3.9-.7 5.81l-3.95 22.36h-4.56l3.87-21.9c.35-1.76.56-3.55.62-5.34 0-4.49-2.4-7.43-7.67-7.43s-10.13 2.94-14.7 7l-4.87 27.63h-4.57l6.71-38.03Zm35.55 22.05c.04-5.91 2.24-11.6 6.19-16 3.81-4.3 9.25-6.8 15-6.88 8.59 0 14.55 5.57 14.55 14.78 0 2.14-.28 4.28-.86 6.34h-30.24c-.07.51-.09 1.03-.08 1.55 0 8.28 5.57 13 13.7 13 4.42-.06 8.73-1.35 12.46-3.72l-.86 4.88a26.628 26.628 0 0 1-12.22 2.94c-10.14-.02-17.64-6.29-17.64-16.89Zm5.26-5.57h26.07c.08-.77.16-1.55.16-2.24 0-7-4.49-11-10.68-11-4.31.02-8.41 1.91-11.22 5.18a20.252 20.252 0 0 0-4.33 8.06Zm44.34-10.45c3.25-3.56 8.05-6.42 13-6.42.76 0 1.51.07 2.25.23l-.78 4.54c-.72-.1-1.44-.15-2.16-.15-5.11 0-9.75 3.09-13.39 7.35l-4.64 26.54h-4.57l6.73-38.07h4.57l-1.08 6 .07-.02Zm20.81-.93c4-3.94 9.36-6 15.63-6 4.93.09 9.78 1.22 14.24 3.32l-6.35 36.14c-2.09 11.84-9.75 17.33-20 17.33-4.31.04-8.55-1.06-12.3-3.17l.85-4.8c3.46 2.46 7.6 3.78 11.84 3.79 7.58 0 13.46-4.48 15.09-13.31l.85-4.64-.08-.07a19.306 19.306 0 0 1-12 4.33c-8.52 0-14.86-6.11-14.86-15.79.06-6.41 2.6-12.55 7.09-17.13Zm8.76 28.95c4.4-.16 8.6-1.89 11.84-4.88l4.26-23.91c-3.07-1.34-6.4-2.02-9.75-2-5.19 0-9.29 1.7-12.31 4.95a20.96 20.96 0 0 0-5.34 13.85c-.02 7.42 4.55 11.99 11.3 11.99Zm58.47-34.05h5l-35.91 55.09h-5.11l14.17-21.35-10.14-33.74h4.87l4.34 14.55c1.39 4.64 2.86 9.75 4.1 14.31h.15c2.87-4.56 6-9.36 9.06-14.16l9.47-14.7Z" style="stroke-width:0;fill:#595a5c"/></svg>