<svg xmlns="http://www.w3.org/2000/svg" xml:space="preserve" id="_2_copy" x="0" y="0" version="1.1" viewBox="0 0 600 300"><style>.st0{fill:#003f6e}</style><path d="M333.1 167.5h-29.6l16.2-85.3H292l5.3-26.7h85.1l-5.1 26.7h-28zm130.5 0h-31.4c-2.5-7.5-9.1-26.8-11.4-34-3.9 7.5-15.5 26.3-20.3 34.1h-35.9l42.2-57.7-19.4-54.3h31.3c1.4 4.6 8.9 28 9.9 32.2 3.9-7.4 14.8-24.9 19.3-32.2h35.8l-41.3 55.6 21.2 56.3zm57.8 1.7c-62.9-.5-28.4-77.9-24.8-113.7h29.6L514.1 120c-2.2 9.4-2.8 23.8 10.5 23.3 7 0 15.6-2.8 19.7-24.4l12.1-63.4H586c-9.5 39.2-8.9 119.5-64.6 113.7zm-197.8 65.2c-43.7 21.1-44.9-43.8-8-46.9 9.2 0 14.2 5.5 14.2 12.5 0 12.7-14.3 16-32.2 15.7-2.8 15.7 13.6 19.2 24.8 12.4l1.2 6.3zm-1.8-34.3c0-3.9-3-6.1-7.4-6.1-7.9 0-13.8 7.7-15.8 15.3 13 .2 23.3-1.5 23.2-9.2zm11.6 37c1.7-9.8 7.7-39.4 8.7-48.5h7.5l-1.3 9.5h.2c7.3-12.3 29.2-17.2 30.2 2.8.1 5.5-5.4 30.4-6.3 36.2h-8.2c-.1-8.1 14.1-43.9-1.7-42.6-16 .3-18.4 29.3-20.9 42.7l-8.2-.1zm87.9-2.7c-43.6 21.1-44.9-43.8-8-46.9 9.2 0 14.2 5.5 14.2 12.5 0 12.7-14.3 16-32.2 15.7-2.8 15.7 13.6 19.2 24.8 12.4l1.2 6.3zm-1.8-34.3c0-3.9-3-6.1-7.4-6.1-7.9 0-13.8 7.7-15.8 15.3 13 .2 23.3-1.5 23.2-9.2zm13.6 37c2-11 7.6-38.2 8.3-48.5h7.3c-.3 3.4-.7 6.7-1.3 10.5h.3c3.6-7.4 9.6-12.8 17.2-11.4l-1.6 8.2c-16.8-3.3-19.4 28.6-21.9 41.2h-8.3z" class="st0"/><path d="M463.5 248.1c18 8.6 29 .7 31.8-21.3h-.2c-4.3 6.9-10.2 10.3-16.8 10.3-32.9-4.5-7.5-65.4 31.5-46.2-3.9 13.9-6 52.9-17.2 61.8-8.4 7-23.6 6.5-31.5 1.9l2.4-6.5zm37.3-52.3c-14.8-7-28.9 7.9-28.5 23 .6 21 23.3 10.2 25.4-6.9l3.1-16.1zm26-7.2c1.4 8.3 6 31.4 7 38.8h.2c2.6-6.7 14.2-31.3 17.6-38.8h8.8c-13 21.6-23 62.6-48.9 70.7l-2.1-7.1c7.8-2.9 17.1-9.6 18.5-18.1l-9.7-45.5h8.6z" class="st0"/><path d="M266.2 132.9c13.3 167.9-236 191.9-255 24.6-13.3-167.9 236-191.9 255-24.6z" style="fill:#fff"/><path d="M11.1 134.1C9 158.5 13.9 183 25.2 204.6l83.9-64.2-98-6.3zm119.6-22.3L167 20.3c-22.6-5.1-46.1-4-68.1 3.2l31.8 88.3zm13.3 3.9C168.7 91 201.6 73.5 238.6 65c-17.1-21.3-40.6-36.7-67.1-43.7L144 115.7zM94.6 24.9c-21.2 7.8-40 21-54.4 38.4l77.4 52.5-23-90.9zm22 127.2-89.2 56.5c15.2 26.6 39.5 46.9 68.4 57.2-4.4-40.8 2.8-81 20.8-113.7zM37.4 66.8c-14.1 18.2-23 39.8-25.8 62.6l97.8-2.8-72-59.8z" class="st0"/><path d="M138 144.1c-24.8 34.7-37.8 77.7-37.7 123.3 114.3 39.9 215.9-104 141.3-198.5-42.8 14.7-79 40.8-103.6 75.2z" style="fill:#008062"/></svg>